# Blender v2.80 (sub 75) OBJ File: ''
# www.blender.org
v -1.250000 0.000000 0.000000
v -1.125000 0.000000 0.216506
v -0.875000 0.000000 0.216506
v -0.750000 0.000000 0.000000
v -0.875000 0.000000 -0.216506
v -1.125000 0.000000 -0.216506
v -1.207407 -0.323524 0.000000
v -1.086667 -0.291171 0.216506
v -0.845185 -0.226467 0.216506
v -0.724444 -0.194114 0.000000
v -0.845185 -0.226467 -0.216506
v -1.086667 -0.291171 -0.216506
v -1.082532 -0.625000 0.000000
v -0.974279 -0.562500 0.216506
v -0.757772 -0.437500 0.216506
v -0.649519 -0.375000 0.000000
v -0.757772 -0.437500 -0.216506
v -0.974279 -0.562500 -0.216506
v -0.883883 -0.883884 0.000000
v -0.795495 -0.795495 0.216506
v -0.618718 -0.618719 0.216506
v -0.530330 -0.530330 0.000000
v -0.618718 -0.618719 -0.216506
v -0.795495 -0.795495 -0.216506
v -0.625000 -1.082532 0.000000
v -0.562500 -0.974279 0.216506
v -0.437500 -0.757772 0.216506
v -0.375000 -0.649519 0.000000
v -0.437500 -0.757772 -0.216506
v -0.562500 -0.974279 -0.216506
v -0.323524 -1.207407 0.000000
v -0.291171 -1.086667 0.216506
v -0.226467 -0.845185 0.216506
v -0.194114 -0.724444 0.000000
v -0.226467 -0.845185 -0.216506
v -0.291171 -1.086667 -0.216506
v -0.000000 -1.250000 0.000000
v -0.000000 -1.125000 0.216506
v -0.000000 -0.875000 0.216506
v -0.000000 -0.750000 0.000000
v -0.000000 -0.875000 -0.216506
v -0.000000 -1.125000 -0.216506
v 0.323524 -1.207407 0.000000
v 0.291171 -1.086667 0.216506
v 0.226467 -0.845185 0.216506
v 0.194114 -0.724444 0.000000
v 0.226467 -0.845185 -0.216506
v 0.291171 -1.086667 -0.216506
v 0.625000 -1.082532 0.000000
v 0.562500 -0.974279 0.216506
v 0.437500 -0.757772 0.216506
v 0.375000 -0.649519 0.000000
v 0.437500 -0.757772 -0.216506
v 0.562500 -0.974279 -0.216506
v 0.883884 -0.883883 0.000000
v 0.795495 -0.795495 0.216506
v 0.618719 -0.618718 0.216506
v 0.530330 -0.530330 0.000000
v 0.618719 -0.618718 -0.216506
v 0.795495 -0.795495 -0.216506
v 1.082532 -0.625000 0.000000
v 0.974278 -0.562500 0.216506
v 0.757772 -0.437500 0.216506
v 0.649519 -0.375000 0.000000
v 0.757772 -0.437500 -0.216506
v 0.974278 -0.562500 -0.216506
v 1.207407 -0.323524 0.000000
v 1.086667 -0.291171 0.216506
v 0.845185 -0.226467 0.216506
v 0.724444 -0.194114 0.000000
v 0.845185 -0.226467 -0.216506
v 1.086667 -0.291171 -0.216506
v 1.250000 -0.000000 0.000000
v 1.125000 -0.000000 0.216506
v 0.875000 -0.000000 0.216506
v 0.750000 -0.000000 0.000000
v 0.875000 -0.000000 -0.216506
v 1.125000 -0.000000 -0.216506
v 1.207407 0.323524 0.000000
v 1.086667 0.291171 0.216506
v 0.845185 0.226467 0.216506
v 0.724444 0.194114 0.000000
v 0.845185 0.226467 -0.216506
v 1.086667 0.291171 -0.216506
v 1.082532 0.625000 0.000000
v 0.974279 0.562500 0.216506
v 0.757772 0.437500 0.216506
v 0.649519 0.375000 0.000000
v 0.757772 0.437500 -0.216506
v 0.974279 0.562500 -0.216506
v 0.883884 0.883883 0.000000
v 0.795495 0.795495 0.216506
v 0.618719 0.618718 0.216506
v 0.530330 0.530330 0.000000
v 0.618719 0.618718 -0.216506
v 0.795495 0.795495 -0.216506
v 0.625000 1.082532 0.000000
v 0.562500 0.974279 0.216506
v 0.437500 0.757772 0.216506
v 0.375000 0.649519 0.000000
v 0.437500 0.757772 -0.216506
v 0.562500 0.974279 -0.216506
v 0.323524 1.207407 0.000000
v 0.291172 1.086666 0.216506
v 0.226467 0.845185 0.216506
v 0.194115 0.724444 0.000000
v 0.226467 0.845185 -0.216506
v 0.291172 1.086666 -0.216506
v -0.000000 1.250000 0.000000
v -0.000000 1.125000 0.216506
v -0.000000 0.875000 0.216506
v -0.000000 0.750000 0.000000
v -0.000000 0.875000 -0.216506
v -0.000000 1.125000 -0.216506
v -0.323523 1.207407 0.000000
v -0.291171 1.086667 0.216506
v -0.226466 0.845185 0.216506
v -0.194114 0.724444 0.000000
v -0.226466 0.845185 -0.216506
v -0.291171 1.086667 -0.216506
v -0.625000 1.082532 0.000000
v -0.562500 0.974279 0.216506
v -0.437500 0.757772 0.216506
v -0.375000 0.649519 0.000000
v -0.437500 0.757772 -0.216506
v -0.562500 0.974279 -0.216506
v -0.883883 0.883884 0.000000
v -0.795495 0.795496 0.216506
v -0.618718 0.618719 0.216506
v -0.530330 0.530330 0.000000
v -0.618718 0.618719 -0.216506
v -0.795495 0.795496 -0.216506
v -1.082532 0.625000 0.000000
v -0.974279 0.562500 0.216506
v -0.757772 0.437500 0.216506
v -0.649519 0.375000 0.000000
v -0.757772 0.437500 -0.216506
v -0.974279 0.562500 -0.216506
v -1.207407 0.323523 0.000000
v -1.086667 0.291171 0.216506
v -0.845185 0.226466 0.216506
v -0.724444 0.194114 0.000000
v -0.845185 0.226466 -0.216506
v -1.086667 0.291171 -0.216506
vn -0.9659 -0.2588 0.0000
vn -0.5300 0.0000 0.8480
vn -1.0000 0.0000 0.0000
vn -0.5119 -0.1372 0.8480
vn 0.4675 0.0000 0.8840
vn 0.9659 0.2588 0.0000
vn 1.0000 0.0000 0.0000
vn 0.4675 0.0000 -0.8840
vn 0.4515 0.1210 -0.8840
vn -0.5300 0.0000 -0.8480
vn -0.5119 -0.1372 -0.8480
vn -0.8660 -0.5000 0.0000
vn -0.4589 -0.2650 0.8480
vn 0.4515 0.1210 0.8840
vn 0.4048 0.2337 0.8840
vn 0.8660 0.5000 0.0000
vn -0.4589 -0.2650 -0.8480
vn -0.7071 -0.7071 0.0000
vn -0.3747 -0.3747 0.8480
vn 0.7071 0.7071 0.0000
vn 0.4048 0.2337 -0.8840
vn -0.3747 -0.3747 -0.8480
vn -0.2650 -0.4589 0.8480
vn 0.3305 0.3305 0.8840
vn 0.2337 0.4048 0.8840
vn 0.5000 0.8660 0.0000
vn 0.3305 0.3305 -0.8840
vn 0.2337 0.4048 -0.8840
vn -0.2650 -0.4589 -0.8480
vn -0.2588 -0.9659 0.0000
vn -0.5000 -0.8660 0.0000
vn 0.1210 0.4515 0.8840
vn 0.1210 0.4515 -0.8840
vn -0.1372 -0.5119 -0.8480
vn 0.0000 -1.0000 0.0000
vn -0.1372 -0.5119 0.8480
vn 0.0000 -0.5300 0.8480
vn 0.0000 0.4675 0.8840
vn 0.2588 0.9659 0.0000
vn 0.0000 0.4675 -0.8840
vn 0.0000 -0.5300 -0.8480
vn 0.2588 -0.9659 0.0000
vn -0.1210 0.4515 0.8840
vn -0.2588 0.9659 0.0000
vn 0.0000 1.0000 0.0000
vn -0.1210 0.4515 -0.8840
vn 0.1372 -0.5119 -0.8480
vn 0.5000 -0.8660 0.0000
vn 0.1372 -0.5119 0.8480
vn 0.2650 -0.4589 0.8480
vn -0.2337 0.4048 0.8840
vn -0.5000 0.8660 0.0000
vn -0.2337 0.4048 -0.8840
vn 0.2650 -0.4589 -0.8480
vn 0.7071 -0.7071 0.0000
vn 0.3747 -0.3747 0.8480
vn -0.3305 0.3305 0.8840
vn -0.7071 0.7071 0.0000
vn 0.3747 -0.3747 -0.8480
vn 0.8660 -0.5000 0.0000
vn 0.4589 -0.2650 0.8480
vn -0.4048 0.2337 0.8840
vn -0.8660 0.5000 0.0000
vn -0.3305 0.3305 -0.8840
vn -0.4048 0.2337 -0.8840
vn 0.4589 -0.2650 -0.8480
vn 0.9659 -0.2588 0.0000
vn -0.4515 0.1210 0.8840
vn -0.4515 0.1210 -0.8840
vn 0.5119 -0.1372 -0.8480
vn 0.5119 -0.1372 0.8480
vn 0.5300 0.0000 0.8480
vn -0.4675 0.0000 0.8840
vn -0.9659 0.2588 0.0000
vn -0.4675 0.0000 -0.8840
vn 0.5300 0.0000 -0.8480
vn -0.4515 -0.1210 0.8840
vn -0.4515 -0.1210 -0.8840
vn 0.5119 0.1372 -0.8480
vn 0.5119 0.1372 0.8480
vn 0.4589 0.2650 0.8480
vn -0.4048 -0.2337 0.8840
vn -0.4048 -0.2337 -0.8840
vn 0.4589 0.2650 -0.8480
vn 0.3747 0.3747 0.8480
vn -0.3305 -0.3305 0.8840
vn -0.3305 -0.3305 -0.8840
vn 0.3747 0.3747 -0.8480
vn -0.2337 -0.4048 0.8840
vn -0.2337 -0.4048 -0.8840
vn 0.2650 0.4589 -0.8480
vn 0.2650 0.4589 0.8480
vn 0.1372 0.5119 0.8480
vn -0.1210 -0.4515 0.8840
vn -0.1210 -0.4515 -0.8840
vn 0.1372 0.5119 -0.8480
vn 0.0000 0.5300 0.8480
vn 0.0000 -0.4675 0.8840
vn 0.0000 -0.4675 -0.8840
vn 0.0000 0.5300 -0.8480
vn -0.1372 0.5119 0.8480
vn 0.1210 -0.4515 0.8840
vn -0.1372 0.5119 -0.8480
vn -0.2650 0.4589 0.8480
vn 0.2337 -0.4048 0.8840
vn 0.1210 -0.4515 -0.8840
vn 0.2337 -0.4048 -0.8840
vn -0.2650 0.4589 -0.8480
vn -0.3747 0.3747 0.8480
vn 0.3305 -0.3305 0.8840
vn 0.3305 -0.3305 -0.8840
vn -0.4589 0.2650 0.8480
vn 0.4048 -0.2337 0.8840
vn 0.4048 -0.2337 -0.8840
vn -0.3747 0.3747 -0.8480
vn -0.4589 0.2650 -0.8480
vn -0.5119 0.1372 0.8480
vn 0.4515 -0.1210 -0.8840
vn 0.4515 -0.1210 0.8840
vn -0.5119 0.1372 -0.8480
s 1
f 7//1 2//2 1//3
f 8//4 3//5 2//2
f 3//5 10//6 4//7
f 10//6 5//8 4//7
f 11//9 6//10 5//8
f 12//11 1//3 6//10
f 13//12 8//4 7//1
f 14//13 9//14 8//4
f 15//15 10//6 9//14
f 16//16 11//9 10//6
f 11//9 18//17 12//11
f 18//17 7//1 12//11
f 19//18 14//13 13//12
f 20//19 15//15 14//13
f 15//15 22//20 16//16
f 22//20 17//21 16//16
f 17//21 24//22 18//17
f 24//22 13//12 18//17
f 19//18 26//23 20//19
f 26//23 21//24 20//19
f 27//25 22//20 21//24
f 28//26 23//27 22//20
f 29//28 24//22 23//27
f 30//29 19//18 24//22
f 31//30 26//23 25//31
f 26//23 33//32 27//25
f 33//32 28//26 27//25
f 28//26 35//33 29//28
f 29//28 36//34 30//29
f 36//34 25//31 30//29
f 37//35 32//36 31//30
f 38//37 33//32 32//36
f 39//38 34//39 33//32
f 34//39 41//40 35//33
f 35//33 42//41 36//34
f 42//41 31//30 36//34
f 43//42 38//37 37//35
f 38//37 45//43 39//38
f 39//38 46//44 40//45
f 40//45 47//46 41//40
f 47//46 42//41 41//40
f 48//47 37//35 42//41
f 49//48 44//49 43//42
f 50//50 45//43 44//49
f 51//51 46//44 45//43
f 52//52 47//46 46//44
f 53//53 48//47 47//46
f 54//54 43//42 48//47
f 55//55 50//50 49//48
f 56//56 51//51 50//50
f 57//57 52//52 51//51
f 58//58 53//53 52//52
f 53//53 60//59 54//54
f 54//54 55//55 49//48
f 61//60 56//56 55//55
f 62//61 57//57 56//56
f 63//62 58//58 57//57
f 64//63 59//64 58//58
f 65//65 60//59 59//64
f 66//66 55//55 60//59
f 67//67 62//61 61//60
f 62//61 69//68 63//62
f 69//68 64//63 63//62
f 64//63 71//69 65//65
f 71//69 66//66 65//65
f 72//70 61//60 66//66
f 73//7 68//71 67//67
f 74//72 69//68 68//71
f 75//73 70//74 69//68
f 70//74 77//75 71//69
f 77//75 72//70 71//69
f 78//76 67//67 72//70
f 79//6 74//72 73//7
f 74//72 81//77 75//73
f 81//77 76//3 75//73
f 82//1 77//75 76//3
f 83//78 78//76 77//75
f 84//79 73//7 78//76
f 85//16 80//80 79//6
f 86//81 81//77 80//80
f 87//82 82//1 81//77
f 88//12 83//78 82//1
f 89//83 84//79 83//78
f 90//84 79//6 84//79
f 91//20 86//81 85//16
f 92//85 87//82 86//81
f 93//86 88//12 87//82
f 88//12 95//87 89//83
f 95//87 90//84 89//83
f 96//88 85//16 90//84
f 97//26 92//85 91//20
f 92//85 99//89 93//86
f 99//89 94//18 93//86
f 100//31 95//87 94//18
f 101//90 96//88 95//87
f 102//91 91//20 96//88
f 103//39 98//92 97//26
f 104//93 99//89 98//92
f 105//94 100//31 99//89
f 100//31 107//95 101//90
f 107//95 102//91 101//90
f 108//96 97//26 102//91
f 109//45 104//93 103//39
f 110//97 105//94 104//93
f 111//98 106//30 105//94
f 112//35 107//95 106//30
f 113//99 108//96 107//95
f 114//100 103//39 108//96
f 115//44 110//97 109//45
f 116//101 111//98 110//97
f 117//102 112//35 111//98
f 118//42 113//99 112//35
f 113//99 120//103 114//100
f 120//103 109//45 114//100
f 121//52 116//101 115//44
f 122//104 117//102 116//101
f 123//105 118//42 117//102
f 124//48 119//106 118//42
f 125//107 120//103 119//106
f 126//108 115//44 120//103
f 127//58 122//104 121//52
f 128//109 123//105 122//104
f 129//110 124//48 123//105
f 130//55 125//107 124//48
f 131//111 126//108 125//107
f 126//108 127//58 121//52
f 127//58 134//112 128//109
f 128//109 135//113 129//110
f 135//113 130//55 129//110
f 136//60 131//111 130//55
f 137//114 132//115 131//111
f 138//116 127//58 132//115
f 139//74 134//112 133//63
f 140//117 135//113 134//112
f 135//113 142//67 136//60
f 142//67 137//114 136//60
f 143//118 138//116 137//114
f 138//116 139//74 133//63
f 1//3 140//117 139//74
f 2//2 141//119 140//117
f 3//5 142//67 141//119
f 4//7 143//118 142//67
f 143//118 6//10 144//120
f 6//10 139//74 144//120
f 7//1 8//4 2//2
f 8//4 9//14 3//5
f 3//5 9//14 10//6
f 10//6 11//9 5//8
f 11//9 12//11 6//10
f 12//11 7//1 1//3
f 13//12 14//13 8//4
f 14//13 15//15 9//14
f 15//15 16//16 10//6
f 16//16 17//21 11//9
f 11//9 17//21 18//17
f 18//17 13//12 7//1
f 19//18 20//19 14//13
f 20//19 21//24 15//15
f 15//15 21//24 22//20
f 22//20 23//27 17//21
f 17//21 23//27 24//22
f 24//22 19//18 13//12
f 19//18 25//31 26//23
f 26//23 27//25 21//24
f 27//25 28//26 22//20
f 28//26 29//28 23//27
f 29//28 30//29 24//22
f 30//29 25//31 19//18
f 31//30 32//36 26//23
f 26//23 32//36 33//32
f 33//32 34//39 28//26
f 28//26 34//39 35//33
f 29//28 35//33 36//34
f 36//34 31//30 25//31
f 37//35 38//37 32//36
f 38//37 39//38 33//32
f 39//38 40//45 34//39
f 34//39 40//45 41//40
f 35//33 41//40 42//41
f 42//41 37//35 31//30
f 43//42 44//49 38//37
f 38//37 44//49 45//43
f 39//38 45//43 46//44
f 40//45 46//44 47//46
f 47//46 48//47 42//41
f 48//47 43//42 37//35
f 49//48 50//50 44//49
f 50//50 51//51 45//43
f 51//51 52//52 46//44
f 52//52 53//53 47//46
f 53//53 54//54 48//47
f 54//54 49//48 43//42
f 55//55 56//56 50//50
f 56//56 57//57 51//51
f 57//57 58//58 52//52
f 58//58 59//64 53//53
f 53//53 59//64 60//59
f 54//54 60//59 55//55
f 61//60 62//61 56//56
f 62//61 63//62 57//57
f 63//62 64//63 58//58
f 64//63 65//65 59//64
f 65//65 66//66 60//59
f 66//66 61//60 55//55
f 67//67 68//71 62//61
f 62//61 68//71 69//68
f 69//68 70//74 64//63
f 64//63 70//74 71//69
f 71//69 72//70 66//66
f 72//70 67//67 61//60
f 73//7 74//72 68//71
f 74//72 75//73 69//68
f 75//73 76//3 70//74
f 70//74 76//3 77//75
f 77//75 78//76 72//70
f 78//76 73//7 67//67
f 79//6 80//80 74//72
f 74//72 80//80 81//77
f 81//77 82//1 76//3
f 82//1 83//78 77//75
f 83//78 84//79 78//76
f 84//79 79//6 73//7
f 85//16 86//81 80//80
f 86//81 87//82 81//77
f 87//82 88//12 82//1
f 88//12 89//83 83//78
f 89//83 90//84 84//79
f 90//84 85//16 79//6
f 91//20 92//85 86//81
f 92//85 93//86 87//82
f 93//86 94//18 88//12
f 88//12 94//18 95//87
f 95//87 96//88 90//84
f 96//88 91//20 85//16
f 97//26 98//92 92//85
f 92//85 98//92 99//89
f 99//89 100//31 94//18
f 100//31 101//90 95//87
f 101//90 102//91 96//88
f 102//91 97//26 91//20
f 103//39 104//93 98//92
f 104//93 105//94 99//89
f 105//94 106//30 100//31
f 100//31 106//30 107//95
f 107//95 108//96 102//91
f 108//96 103//39 97//26
f 109//45 110//97 104//93
f 110//97 111//98 105//94
f 111//98 112//35 106//30
f 112//35 113//99 107//95
f 113//99 114//100 108//96
f 114//100 109//45 103//39
f 115//44 116//101 110//97
f 116//101 117//102 111//98
f 117//102 118//42 112//35
f 118//42 119//106 113//99
f 113//99 119//106 120//103
f 120//103 115//44 109//45
f 121//52 122//104 116//101
f 122//104 123//105 117//102
f 123//105 124//48 118//42
f 124//48 125//107 119//106
f 125//107 126//108 120//103
f 126//108 121//52 115//44
f 127//58 128//109 122//104
f 128//109 129//110 123//105
f 129//110 130//55 124//48
f 130//55 131//111 125//107
f 131//111 132//115 126//108
f 126//108 132//115 127//58
f 127//58 133//63 134//112
f 128//109 134//112 135//113
f 135//113 136//60 130//55
f 136//60 137//114 131//111
f 137//114 138//116 132//115
f 138//116 133//63 127//58
f 139//74 140//117 134//112
f 140//117 141//119 135//113
f 135//113 141//119 142//67
f 142//67 143//118 137//114
f 143//118 144//120 138//116
f 138//116 144//120 139//74
f 1//3 2//2 140//117
f 2//2 3//5 141//119
f 3//5 4//7 142//67
f 4//7 5//8 143//118
f 143//118 5//8 6//10
f 6//10 1//3 139//74
