# Blender v2.80 (sub 75) OBJ File: ''
# www.blender.org
v 0.000000 0.000000 -1.500000
v -1.447215 0.525725 -1.223610
v 0.552776 0.850649 -1.223610
v 1.788852 0.000000 -1.223608
v 0.552776 -0.850649 -1.223610
v -1.447215 -0.525725 -1.223610
v -0.552776 0.850649 -0.776390
v 1.447215 0.525725 -0.776390
v 1.447215 -0.525725 -0.776390
v -0.552776 -0.850649 -0.776390
v -1.788852 0.000000 -0.776392
v 0.000000 0.000000 -0.500000
v 0.465643 0.716563 -1.328760
v 0.324911 0.499995 -1.425327
v 0.155213 0.238853 -1.483975
v -0.406362 0.147618 -1.483975
v -0.850645 0.309011 -1.425327
v -1.219093 0.442856 -1.328759
v -1.063882 0.681712 -1.251151
v -0.525738 0.809012 -1.262869
v 0.059279 0.864184 -1.251151
v -1.625458 -0.295238 -1.251150
v -1.701296 0.000000 -1.262868
v -1.625458 0.295238 -1.251150
v -0.406362 -0.147618 -1.483975
v -0.850645 -0.309011 -1.425327
v -1.219093 -0.442856 -1.328759
v 1.506883 0.000000 -1.328757
v 1.051460 0.000000 -1.425326
v 0.502294 0.000000 -1.483974
v 0.967943 0.716565 -1.251151
v 1.376379 0.499997 -1.262868
v 1.662101 0.238853 -1.251149
v 0.465643 -0.716563 -1.328760
v 0.324911 -0.499995 -1.425327
v 0.155213 -0.238853 -1.483975
v 1.662101 -0.238853 -1.251149
v 1.376379 -0.499997 -1.262868
v 0.967943 -0.716565 -1.251151
v 0.059279 -0.864184 -1.251151
v -0.525738 -0.809012 -1.262869
v -1.063882 -0.681712 -1.251151
v -1.913252 0.147618 -0.874425
v -1.902116 0.309013 -1.000000
v -1.721395 0.442858 -1.125575
v -1.721395 -0.442858 -1.125575
v -1.902116 -0.309013 -1.000000
v -1.913252 -0.147618 -0.874425
v -0.310430 0.955422 -0.874424
v 0.000000 1.000000 -1.000000
v 0.310430 0.955422 -1.125576
v -1.374317 0.681715 -1.125576
v -1.175571 0.809017 -1.000000
v -0.872014 0.864188 -0.874424
v 1.721395 0.442858 -0.874425
v 1.902116 0.309013 -1.000000
v 1.913252 0.147618 -1.125575
v 0.872014 0.864188 -1.125576
v 1.175571 0.809017 -1.000000
v 1.374317 0.681715 -0.874424
v 1.374317 -0.681715 -0.874424
v 1.175571 -0.809017 -1.000000
v 0.872014 -0.864188 -1.125576
v 1.913252 -0.147618 -1.125575
v 1.902116 -0.309013 -1.000000
v 1.721395 -0.442858 -0.874425
v -0.872014 -0.864188 -0.874424
v -1.175571 -0.809017 -1.000000
v -1.374317 -0.681715 -1.125576
v 0.310430 -0.955422 -1.125576
v 0.000000 -1.000000 -1.000000
v -0.310430 -0.955422 -0.874424
v -1.662101 0.238853 -0.748851
v -1.376379 0.499997 -0.737132
v -0.967943 0.716565 -0.748849
v -0.059279 0.864184 -0.748849
v 0.525738 0.809012 -0.737131
v 1.063882 0.681712 -0.748849
v 1.625458 0.295238 -0.748850
v 1.701296 0.000000 -0.737132
v 1.625458 -0.295238 -0.748850
v 1.063882 -0.681712 -0.748849
v 0.525738 -0.809012 -0.737131
v -0.059279 -0.864184 -0.748849
v -0.967943 -0.716565 -0.748849
v -1.376379 -0.499997 -0.737132
v -1.662101 -0.238853 -0.748851
v -0.155213 0.238853 -0.516025
v -0.324911 0.499995 -0.574673
v -0.465643 0.716563 -0.671240
v -1.506883 0.000000 -0.671243
v -1.051460 0.000000 -0.574674
v -0.502294 0.000000 -0.516026
v 0.406362 0.147618 -0.516025
v 0.850645 0.309011 -0.574673
v 1.219093 0.442856 -0.671241
v 0.406362 -0.147618 -0.516025
v 0.850645 -0.309011 -0.574673
v 1.219093 -0.442856 -0.671241
v -0.155213 -0.238853 -0.516025
v -0.324911 -0.499995 -0.574673
v -0.465643 -0.716563 -0.671240
v -0.723601 -0.262863 -0.552785
v -1.276387 -0.262864 -0.638195
v -0.894418 -0.525728 -0.638194
v 0.276395 -0.425319 -0.552785
v 0.105579 -0.688185 -0.638194
v 0.723607 -0.587778 -0.638194
v 0.894420 0.000000 -0.552785
v 1.341633 -0.162457 -0.638195
v 1.341633 0.162457 -0.638195
v 0.276395 0.425319 -0.552785
v 0.723607 0.587778 -0.638194
v 0.105579 0.688185 -0.638194
v -0.723601 0.262863 -0.552785
v -0.894418 0.525728 -0.638194
v -1.276387 0.262864 -0.638195
v -1.723608 -0.425322 -0.861802
v -1.618039 -0.587782 -1.000000
v -1.341641 -0.688189 -0.861801
v 0.276397 -0.951055 -0.861801
v 0.618033 -0.951057 -1.000000
v 0.894430 -0.850649 -0.861801
v 1.894426 -0.162458 -0.861802
v 2.000000 0.000000 -1.000000
v 1.894426 0.162458 -0.861802
v 0.894432 0.850648 -0.861802
v 0.618034 0.951056 -1.000000
v 0.276399 0.951055 -0.861802
v -1.341641 0.688190 -0.861802
v -1.618037 0.587783 -1.000001
v -1.723608 0.425323 -0.861803
v -0.618034 -0.951056 -1.000000
v -0.894431 -0.850648 -1.138199
v -0.276398 -0.951055 -1.138199
v 1.618037 -0.587783 -1.000000
v 1.341638 -0.688191 -1.138199
v 1.723606 -0.425324 -1.138198
v 1.618037 0.587783 -1.000000
v 1.723606 0.425324 -1.138198
v 1.341638 0.688191 -1.138199
v -0.618034 0.951056 -1.000000
v -0.276398 0.951055 -1.138199
v -0.894431 0.850648 -1.138199
v -2.000000 0.000000 -1.000000
v -1.894426 0.162458 -1.138198
v -1.894426 -0.162458 -1.138198
v -0.723607 -0.587779 -1.361806
v -0.276394 -0.425321 -1.447215
v -0.105578 -0.688186 -1.361805
v 0.894421 -0.525727 -1.361806
v 0.723602 -0.262863 -1.447214
v 1.276389 -0.262863 -1.361805
v 1.276389 0.262864 -1.361805
v 0.723603 0.262864 -1.447214
v 0.894421 0.525729 -1.361805
v -1.341634 -0.162457 -1.361805
v -1.341635 0.162458 -1.361805
v -0.894422 0.000001 -1.447214
v -0.105581 0.688185 -1.361806
v -0.276397 0.425321 -1.447215
v -0.723610 0.587779 -1.361805
vn -0.0012 0.0000 -1.0000
vn -0.0564 0.0798 -0.9952
vn 0.0213 0.1303 -0.9912
vn -0.3479 0.4930 -0.7974
vn -0.2182 0.3164 -0.9232
vn -0.3881 0.2672 -0.8820
vn 0.0678 0.0000 -0.9977
vn 0.0213 -0.1303 -0.9912
vn -0.0564 -0.0798 -0.9952
vn -0.5893 0.5764 -0.5661
vn 0.1179 0.7036 -0.7007
vn 0.0096 0.6707 -0.7417
vn 0.0707 0.9022 -0.4254
vn 0.4772 0.0000 -0.8788
vn 0.3955 0.2326 -0.8885
vn 0.7485 0.2278 -0.6228
vn 0.1179 -0.7036 -0.7007
vn 0.2065 -0.5860 -0.7836
vn 0.2262 -0.8642 -0.4494
vn -0.3479 -0.4930 -0.7974
vn -0.2220 -0.5686 -0.7920
vn -0.3942 -0.7751 -0.4938
vn -0.3942 0.7751 -0.4938
vn 0.2262 0.8642 -0.4494
vn 0.7485 -0.2278 -0.6228
vn 0.0707 -0.9022 -0.4254
vn -0.5893 -0.5764 -0.5661
vn -0.1179 0.7036 0.7007
vn -0.2065 0.5860 0.7836
vn -0.0780 0.4794 0.8741
vn 0.3479 0.4930 0.7974
vn 0.2220 0.5686 0.7920
vn 0.2182 0.3164 0.9232
vn 0.3479 -0.4930 0.7974
vn 0.3881 -0.2672 0.8820
vn 0.2182 -0.3164 0.9232
vn -0.1179 -0.7036 0.7007
vn -0.0096 -0.6707 0.7417
vn -0.0780 -0.4794 0.8741
vn -0.4772 0.0000 0.8788
vn -0.3955 -0.2326 0.8885
vn -0.2831 0.0000 0.9591
vn -0.0678 0.0000 0.9977
vn -0.0213 -0.1303 0.9912
vn 0.0012 0.0000 1.0000
vn -0.1575 0.0000 0.9875
vn -0.1049 -0.1514 0.9829
vn -0.2183 -0.1828 0.9586
vn -0.0469 -0.2882 0.9564
vn -0.1498 -0.3416 0.9278
vn -0.3027 -0.4307 0.8502
vn -0.2065 -0.5860 0.7836
vn 0.0564 -0.0798 0.9952
vn 0.0398 -0.2421 0.9694
vn 0.0197 -0.4373 0.8991
vn 0.1265 -0.1821 0.9751
vn 0.1167 -0.3843 0.9158
vn 0.1034 -0.6279 0.7714
vn 0.2220 -0.5686 0.7920
vn 0.0564 0.0798 0.9952
vn 0.1314 0.0000 0.9913
vn 0.2335 -0.1074 0.9664
vn 0.1265 0.1821 0.9751
vn 0.2335 0.1074 0.9664
vn 0.4055 0.0000 0.9141
vn 0.3881 0.2672 0.8820
vn -0.0213 0.1303 0.9912
vn 0.0398 0.2421 0.9694
vn 0.1167 0.3843 0.9158
vn -0.0469 0.2882 0.9564
vn 0.0197 0.4373 0.8991
vn 0.1034 0.6279 0.7714
vn -0.0096 0.6707 0.7417
vn -0.1049 0.1514 0.9829
vn -0.1498 0.3416 0.9278
vn -0.2183 0.1828 0.9586
vn -0.3027 0.4307 0.8502
vn -0.3955 0.2326 0.8885
vn -0.7485 -0.2278 0.6228
vn -0.8535 -0.5211 -0.0018
vn -0.5696 -0.5531 0.6079
vn -0.5802 -0.8142 0.0205
vn -0.3822 -0.7512 0.5381
vn -0.3482 -0.9374 0.0004
vn -0.2262 -0.8642 0.4494
vn -0.0707 -0.9022 0.4254
vn 0.0000 -1.0000 0.0000
vn 0.0688 -0.8813 0.4675
vn 0.1627 -0.9865 0.0166
vn 0.2206 -0.8424 0.4916
vn 0.3482 -0.9374 -0.0004
vn 0.3942 -0.7751 0.4938
vn 0.5893 -0.5764 0.5661
vn 0.8535 -0.5211 0.0018
vn 0.7126 -0.2218 0.6655
vn 0.9997 0.0000 0.0244
vn 0.7126 0.2218 0.6655
vn 0.8535 0.5211 0.0018
vn 0.5893 0.5764 0.5661
vn 0.3942 0.7751 0.4938
vn 0.3482 0.9374 -0.0004
vn 0.2206 0.8424 0.4916
vn 0.1627 0.9865 0.0166
vn 0.0688 0.8813 0.4675
vn 0.0000 1.0000 0.0000
vn -0.0707 0.9022 0.4254
vn -0.2262 0.8642 0.4494
vn -0.3482 0.9374 0.0004
vn -0.3822 0.7512 0.5381
vn -0.5802 0.8142 0.0205
vn -0.5696 0.5531 0.6079
vn -0.8535 0.5211 -0.0018
vn -0.7485 0.2278 0.6228
vn -0.1627 -0.9865 -0.0166
vn -0.2206 -0.8424 -0.4916
vn -0.0688 -0.8813 -0.4675
vn -0.1034 -0.6279 -0.7714
vn 0.0096 -0.6707 -0.7417
vn 0.5802 -0.8142 -0.0205
vn 0.3822 -0.7512 -0.5381
vn 0.5696 -0.5531 -0.6079
vn 0.3027 -0.4307 -0.8502
vn 0.3955 -0.2326 -0.8885
vn 0.5802 0.8142 -0.0205
vn 0.5696 0.5531 -0.6079
vn 0.3822 0.7512 -0.5381
vn 0.3027 0.4307 -0.8502
vn 0.2065 0.5860 -0.7836
vn -0.1627 0.9865 -0.0166
vn -0.0688 0.8813 -0.4675
vn -0.2206 0.8424 -0.4916
vn -0.1034 0.6279 -0.7714
vn -0.2220 0.5686 -0.7920
vn -0.9997 0.0000 -0.0244
vn -0.7126 0.2218 -0.6655
vn -0.7126 -0.2218 -0.6655
vn -0.4055 0.0000 -0.9141
vn -0.3881 -0.2672 -0.8820
vn -0.2182 -0.3164 -0.9232
vn -0.1265 -0.1821 -0.9751
vn -0.1167 -0.3843 -0.9158
vn -0.0398 -0.2421 -0.9694
vn -0.0197 -0.4373 -0.8991
vn 0.0469 -0.2882 -0.9564
vn 0.0780 -0.4794 -0.8741
vn 0.1498 -0.3416 -0.9278
vn 0.1049 -0.1514 -0.9829
vn 0.2183 -0.1828 -0.9586
vn 0.1575 0.0000 -0.9875
vn 0.2831 0.0000 -0.9591
vn 0.2183 0.1828 -0.9586
vn 0.1049 0.1514 -0.9829
vn 0.1498 0.3416 -0.9278
vn 0.0469 0.2882 -0.9564
vn 0.0780 0.4794 -0.8741
vn -0.2335 -0.1074 -0.9664
vn -0.2335 0.1074 -0.9664
vn -0.1314 0.0000 -0.9913
vn -0.1265 0.1821 -0.9751
vn -0.0197 0.4373 -0.8991
vn -0.0398 0.2421 -0.9694
vn -0.1167 0.3843 -0.9158
s 1
f 1//1 16//2 15//3
f 2//4 18//5 24//6
f 1//1 15//3 30//7
f 1//1 30//7 36//8
f 1//1 36//8 25//9
f 2//4 24//6 45//10
f 3//11 21//12 51//13
f 4//14 33//15 57//16
f 5//17 39//18 63//19
f 6//20 42//21 69//22
f 2//4 45//10 52//23
f 3//11 51//13 58//24
f 4//14 57//16 64//25
f 5//17 63//19 70//26
f 6//20 69//22 46//27
f 7//28 75//29 90//30
f 8//31 78//32 96//33
f 9//34 81//35 99//36
f 10//37 84//38 102//39
f 11//40 87//41 91//42
f 93//43 100//44 12//45
f 92//46 103//47 93//43
f 91//42 104//48 92//46
f 93//43 103//47 100//44
f 103//47 101//49 100//44
f 92//46 104//48 103//47
f 104//48 105//50 103//47
f 103//47 105//50 101//49
f 105//50 102//39 101//49
f 91//42 87//41 104//48
f 87//41 86//51 104//48
f 104//48 86//51 105//50
f 86//51 85//52 105//50
f 105//50 85//52 102//39
f 85//52 10//37 102//39
f 100//44 97//53 12//45
f 101//49 106//54 100//44
f 102//39 107//55 101//49
f 100//44 106//54 97//53
f 106//54 98//56 97//53
f 101//49 107//55 106//54
f 107//55 108//57 106//54
f 106//54 108//57 98//56
f 108//57 99//36 98//56
f 102//39 84//38 107//55
f 84//38 83//58 107//55
f 107//55 83//58 108//57
f 83//58 82//59 108//57
f 108//57 82//59 99//36
f 82//59 9//34 99//36
f 97//53 94//60 12//45
f 98//56 109//61 97//53
f 99//36 110//62 98//56
f 97//53 109//61 94//60
f 109//61 95//63 94//60
f 98//56 110//62 109//61
f 110//62 111//64 109//61
f 109//61 111//64 95//63
f 111//64 96//33 95//63
f 99//36 81//35 110//62
f 81//35 80//65 110//62
f 110//62 80//65 111//64
f 80//65 79//66 111//64
f 111//64 79//66 96//33
f 79//66 8//31 96//33
f 94//60 88//67 12//45
f 95//63 112//68 94//60
f 96//33 113//69 95//63
f 94//60 112//68 88//67
f 112//68 89//70 88//67
f 95//63 113//69 112//68
f 113//69 114//71 112//68
f 112//68 114//71 89//70
f 114//71 90//30 89//70
f 96//33 78//32 113//69
f 78//32 77//72 113//69
f 113//69 77//72 114//71
f 77//72 76//73 114//71
f 114//71 76//73 90//30
f 76//73 7//28 90//30
f 88//67 93//43 12//45
f 89//70 115//74 88//67
f 90//30 116//75 89//70
f 88//67 115//74 93//43
f 115//74 92//46 93//43
f 89//70 116//75 115//74
f 116//75 117//76 115//74
f 115//74 117//76 92//46
f 117//76 91//42 92//46
f 90//30 75//29 116//75
f 75//29 74//77 116//75
f 116//75 74//77 117//76
f 74//77 73//78 117//76
f 117//76 73//78 91//42
f 73//78 11//40 91//42
f 48//79 87//41 11//40
f 47//80 118//81 48//79
f 46//27 119//82 47//80
f 48//79 118//81 87//41
f 118//81 86//51 87//41
f 47//80 119//82 118//81
f 119//82 120//83 118//81
f 118//81 120//83 86//51
f 120//83 85//52 86//51
f 46//27 69//22 119//82
f 69//22 68//84 119//82
f 119//82 68//84 120//83
f 68//84 67//85 120//83
f 120//83 67//85 85//52
f 67//85 10//37 85//52
f 72//86 84//38 10//37
f 71//87 121//88 72//86
f 70//26 122//89 71//87
f 72//86 121//88 84//38
f 121//88 83//58 84//38
f 71//87 122//89 121//88
f 122//89 123//90 121//88
f 121//88 123//90 83//58
f 123//90 82//59 83//58
f 70//26 63//19 122//89
f 63//19 62//91 122//89
f 122//89 62//91 123//90
f 62//91 61//92 123//90
f 123//90 61//92 82//59
f 61//92 9//34 82//59
f 66//93 81//35 9//34
f 65//94 124//95 66//93
f 64//25 125//96 65//94
f 66//93 124//95 81//35
f 124//95 80//65 81//35
f 65//94 125//96 124//95
f 125//96 126//97 124//95
f 124//95 126//97 80//65
f 126//97 79//66 80//65
f 64//25 57//16 125//96
f 57//16 56//98 125//96
f 125//96 56//98 126//97
f 56//98 55//99 126//97
f 126//97 55//99 79//66
f 55//99 8//31 79//66
f 60//100 78//32 8//31
f 59//101 127//102 60//100
f 58//24 128//103 59//101
f 60//100 127//102 78//32
f 127//102 77//72 78//32
f 59//101 128//103 127//102
f 128//103 129//104 127//102
f 127//102 129//104 77//72
f 129//104 76//73 77//72
f 58//24 51//13 128//103
f 51//13 50//105 128//103
f 128//103 50//105 129//104
f 50//105 49//106 129//104
f 129//104 49//106 76//73
f 49//106 7//28 76//73
f 54//107 75//29 7//28
f 53//108 130//109 54//107
f 52//23 131//110 53//108
f 54//107 130//109 75//29
f 130//109 74//77 75//29
f 53//108 131//110 130//109
f 131//110 132//111 130//109
f 130//109 132//111 74//77
f 132//111 73//78 74//77
f 52//23 45//10 131//110
f 45//10 44//112 131//110
f 131//110 44//112 132//111
f 44//112 43//113 132//111
f 132//111 43//113 73//78
f 43//113 11//40 73//78
f 67//85 72//86 10//37
f 68//84 133//114 67//85
f 69//22 134//115 68//84
f 67//85 133//114 72//86
f 133//114 71//87 72//86
f 68//84 134//115 133//114
f 134//115 135//116 133//114
f 133//114 135//116 71//87
f 135//116 70//26 71//87
f 69//22 42//21 134//115
f 42//21 41//117 134//115
f 134//115 41//117 135//116
f 41//117 40//118 135//116
f 135//116 40//118 70//26
f 40//118 5//17 70//26
f 61//92 66//93 9//34
f 62//91 136//119 61//92
f 63//19 137//120 62//91
f 61//92 136//119 66//93
f 136//119 65//94 66//93
f 62//91 137//120 136//119
f 137//120 138//121 136//119
f 136//119 138//121 65//94
f 138//121 64//25 65//94
f 63//19 39//18 137//120
f 39//18 38//122 137//120
f 137//120 38//122 138//121
f 38//122 37//123 138//121
f 138//121 37//123 64//25
f 37//123 4//14 64//25
f 55//99 60//100 8//31
f 56//98 139//124 55//99
f 57//16 140//125 56//98
f 55//99 139//124 60//100
f 139//124 59//101 60//100
f 56//98 140//125 139//124
f 140//125 141//126 139//124
f 139//124 141//126 59//101
f 141//126 58//24 59//101
f 57//16 33//15 140//125
f 33//15 32//127 140//125
f 140//125 32//127 141//126
f 32//127 31//128 141//126
f 141//126 31//128 58//24
f 31//128 3//11 58//24
f 49//106 54//107 7//28
f 50//105 142//129 49//106
f 51//13 143//130 50//105
f 49//106 142//129 54//107
f 142//129 53//108 54//107
f 50//105 143//130 142//129
f 143//130 144//131 142//129
f 142//129 144//131 53//108
f 144//131 52//23 53//108
f 51//13 21//12 143//130
f 21//12 20//132 143//130
f 143//130 20//132 144//131
f 20//132 19//133 144//131
f 144//131 19//133 52//23
f 19//133 2//4 52//23
f 43//113 48//79 11//40
f 44//112 145//134 43//113
f 45//10 146//135 44//112
f 43//113 145//134 48//79
f 145//134 47//80 48//79
f 44//112 146//135 145//134
f 146//135 147//136 145//134
f 145//134 147//136 47//80
f 147//136 46//27 47//80
f 45//10 24//6 146//135
f 24//6 23//137 146//135
f 146//135 23//137 147//136
f 23//137 22//138 147//136
f 147//136 22//138 46//27
f 22//138 6//20 46//27
f 27//139 42//21 6//20
f 26//140 148//141 27//139
f 25//9 149//142 26//140
f 27//139 148//141 42//21
f 148//141 41//117 42//21
f 26//140 149//142 148//141
f 149//142 150//143 148//141
f 148//141 150//143 41//117
f 150//143 40//118 41//117
f 25//9 36//8 149//142
f 36//8 35//144 149//142
f 149//142 35//144 150//143
f 35//144 34//145 150//143
f 150//143 34//145 40//118
f 34//145 5//17 40//118
f 34//145 39//18 5//17
f 35//144 151//146 34//145
f 36//8 152//147 35//144
f 34//145 151//146 39//18
f 151//146 38//122 39//18
f 35//144 152//147 151//146
f 152//147 153//148 151//146
f 151//146 153//148 38//122
f 153//148 37//123 38//122
f 36//8 30//7 152//147
f 30//7 29//149 152//147
f 152//147 29//149 153//148
f 29//149 28//150 153//148
f 153//148 28//150 37//123
f 28//150 4//14 37//123
f 28//150 33//15 4//14
f 29//149 154//151 28//150
f 30//7 155//152 29//149
f 28//150 154//151 33//15
f 154//151 32//127 33//15
f 29//149 155//152 154//151
f 155//152 156//153 154//151
f 154//151 156//153 32//127
f 156//153 31//128 32//127
f 30//7 15//3 155//152
f 15//3 14//154 155//152
f 155//152 14//154 156//153
f 14//154 13//155 156//153
f 156//153 13//155 31//128
f 13//155 3//11 31//128
f 22//138 27//139 6//20
f 23//137 157//156 22//138
f 24//6 158//157 23//137
f 22//138 157//156 27//139
f 157//156 26//140 27//139
f 23//137 158//157 157//156
f 158//157 159//158 157//156
f 157//156 159//158 26//140
f 159//158 25//9 26//140
f 24//6 18//5 158//157
f 18//5 17//159 158//157
f 158//157 17//159 159//158
f 17//159 16//2 159//158
f 159//158 16//2 25//9
f 16//2 1//1 25//9
f 13//155 21//12 3//11
f 14//154 160//160 13//155
f 15//3 161//161 14//154
f 13//155 160//160 21//12
f 160//160 20//132 21//12
f 14//154 161//161 160//160
f 161//161 162//162 160//160
f 160//160 162//162 20//132
f 162//162 19//133 20//132
f 15//3 16//2 161//161
f 16//2 17//159 161//161
f 161//161 17//159 162//162
f 17//159 18//5 162//162
f 162//162 18//5 19//133
f 18//5 2//4 19//133
