# Blender v2.80 (sub 75) OBJ File: ''
# www.blender.org
v 1.000000 1.000000 0.000000
v -0.500000 1.000000 0.866025
v 1.000000 1.000000 0.000000
v -0.500000 1.000000 -0.866025
v 1.000000 -1.000000 0.000000
v -0.500000 -1.000000 0.866025
v 1.000000 -1.000000 0.000000
v -0.500000 -1.000000 -0.866025
vn 0.0000 0.0000 1.0000
vn 0.5000 0.0000 -0.8660
vn 0.0000 -1.0000 0.0000
vn -1.0000 0.0000 0.0000
vn 0.0000 1.0000 0.0000
vn 0.5000 0.0000 0.8660
s off
f 1//1 7//1 3//1
f 3//2 8//2 4//2
f 8//3 5//3 6//3
f 2//4 8//4 6//4
f 2//5 3//5 4//5
f 5//6 2//6 6//6
f 1//1 5//1 7//1
f 3//2 7//2 8//2
f 8//1 7//1 5//1
f 2//4 4//4 8//4
f 2//1 1//1 3//1
f 5//6 1//6 2//6
