# Blender v2.80 (sub 75) OBJ File: 'doe.blend'
# www.blender.org
v -0.014483 -0.068451 0.350341
v -0.128708 -0.087425 0.291659
v -0.079264 -0.182811 0.000000
v -0.118573 -0.086358 0.291659
v 0.104557 0.000000 0.369583
v -0.007377 -0.049435 0.325351
v -0.096351 -0.045027 0.518532
v -0.262148 -0.013978 0.472705
v -0.167097 -0.034012 0.585836
v -0.122310 -0.037346 0.594152
v -0.020477 -0.042548 0.173174
v 0.265188 -0.067617 0.221088
v 0.416011 -0.192942 0.000000
v 0.219587 -0.071084 0.323646
v 0.305823 -0.033823 0.423864
v 0.337273 -0.060207 0.283108
v -0.124124 -0.000000 0.444854
v -0.014483 0.068451 0.350341
v -0.128708 0.087425 0.288484
v -0.079264 0.182811 0.000000
v -0.118573 0.086358 0.291659
v -0.007377 0.049435 0.325351
v -0.095242 0.043066 0.518468
v -0.070907 -0.001305 0.502273
v -0.261769 0.016135 0.472684
v -0.166241 0.033932 0.585788
v 0.001267 0.000000 0.434145
v -0.121374 0.037016 0.594098
v -0.196702 0.000204 0.567513
v -0.177349 0.000263 0.592864
v -0.153439 0.000672 0.478634
v -0.020476 0.042548 0.173174
v 0.265188 0.067617 0.221088
v 0.416011 0.192942 0.000000
v 0.219587 0.071084 0.323646
v 0.305823 0.033823 0.423864
v 0.337273 0.060207 0.283108
v 0.389217 0.000000 0.412688
v 0.297289 0.000000 0.520502
v -0.062553 0.000000 0.256472
v 0.299095 0.000000 0.253043
v 0.238716 0.000000 0.217004
v 0.059765 0.000000 0.215289
v 0.048627 -0.081552 0.376308
v 0.048627 0.081552 0.376308
v -0.066040 0.000000 0.548097
v -0.165633 -0.019003 0.602773
v -0.192790 -0.001077 0.711010
v -0.173557 -0.010747 0.597665
v -0.193426 -0.001134 0.710717
v -0.193970 -0.000757 0.710465
v -0.172002 0.013358 0.598667
v -0.194215 -0.000091 0.710353
v -0.163116 0.020000 0.604395
v -0.194066 0.000609 0.710421
v -0.123966 0.019003 0.595126
v -0.193580 0.001077 0.710645
v -0.116041 0.010747 0.600234
v -0.192944 0.001134 0.710939
v -0.113609 -0.001614 0.601802
v -0.192400 0.000757 0.711190
v -0.117597 -0.013358 0.599231
v -0.192156 0.000091 0.711303
v -0.192305 -0.000609 0.711234
v -0.168037 -0.010867 0.656352
v -0.173694 -0.008792 0.653741
v -0.177190 -0.003358 0.652127
v -0.177190 0.003358 0.652127
v -0.173694 0.008792 0.653741
v -0.168037 0.010867 0.656352
v -0.162380 0.008792 0.658964
v -0.158884 0.003358 0.660578
v -0.158884 -0.003358 0.660578
v -0.162380 -0.008792 0.658964
v -0.179572 -0.005901 0.684070
v -0.182842 -0.005464 0.682560
v -0.185260 -0.002940 0.681444
v -0.185903 0.000707 0.681147
v -0.184524 0.004084 0.681784
v -0.181651 0.005901 0.683110
v -0.178380 0.005464 0.684620
v -0.175962 0.002940 0.685736
v -0.175320 -0.000707 0.686033
v -0.176698 -0.004084 0.685396
v -0.165685 -0.010669 0.624396
v -0.169286 -0.001847 0.622733
v -0.167608 0.007680 0.623508
v -0.161291 0.014274 0.626424
v -0.152747 0.015416 0.630368
v -0.145242 0.010669 0.633833
v -0.141640 0.001847 0.635496
v -0.143318 -0.007680 0.634721
v -0.149635 -0.014274 0.631805
v -0.158179 -0.015416 0.627861
v -0.261940 0.010174 0.502538
v -0.261940 -0.010174 0.502538
v -0.008706 -0.040776 0.481779
v -0.008706 0.040776 0.481779
v 0.048627 -0.000000 0.410947
v -0.011140 0.040123 0.458867
v -0.011140 -0.041429 0.458867
vn -0.1040 0.9877 -0.1169
vn 0.1112 0.8617 -0.4951
vn 0.4648 -0.8635 0.1959
vn 0.0127 0.9499 -0.3124
vn -0.5014 0.7513 0.4291
vn -0.7284 -0.4295 -0.5339
vn 0.5841 0.7717 0.2514
vn -0.8492 0.3458 -0.3990
vn -0.3578 0.8605 -0.3626
vn 0.2410 -0.8907 0.3856
vn -0.8632 0.3779 -0.3347
vn -0.0872 -0.9937 0.0710
vn -0.7470 -0.3405 0.5710
vn -0.1948 -0.2526 0.9478
vn 0.1205 -0.5632 -0.8175
vn 0.4234 0.8352 0.3508
vn 0.7441 0.3726 -0.5544
vn -0.1317 -0.9481 0.2893
vn -0.8556 -0.3384 -0.3918
vn -0.0030 -0.9365 0.3508
vn -0.2953 0.9502 -0.0992
vn -0.2151 -0.9554 0.2023
vn 0.9655 0.1876 0.1806
vn 0.3925 -0.8841 0.2534
vn 0.3923 -0.8568 0.3345
vn 0.2196 0.9054 -0.3634
vn 0.6753 -0.6683 0.3120
vn -0.1008 0.9574 0.2705
vn 0.6629 -0.6587 0.3560
vn 0.9022 0.3149 0.2949
vn 0.6499 0.0329 -0.7593
vn 0.5069 0.1472 -0.8493
vn 0.1738 -0.8387 0.5162
vn 0.0096 -0.0566 -0.9984
vn 0.1858 0.4916 -0.8507
vn 0.0211 0.9661 0.2574
vn -0.1201 0.8650 0.4871
vn -0.4648 -0.8635 -0.1959
vn -0.0127 0.9499 0.3124
vn 0.5014 0.7513 -0.4291
vn 0.7284 -0.4295 0.5339
vn -0.5728 0.7854 -0.2347
vn 0.8571 0.3238 0.4006
vn 0.3319 0.8685 0.3683
vn -0.2410 -0.8907 -0.3856
vn 0.8732 0.3583 0.3304
vn 0.0782 -0.9955 -0.0526
vn 0.7410 -0.3632 -0.5648
vn 0.1932 -0.2624 -0.9454
vn -0.1271 -0.5810 0.8039
vn -0.3834 0.8548 -0.3497
vn -0.7441 0.3726 0.5544
vn 0.1317 -0.9481 -0.2893
vn 0.8556 -0.3384 0.3918
vn 0.0030 -0.9365 -0.3508
vn 0.2953 0.9502 0.0992
vn 0.2151 -0.9554 -0.2023
vn -0.9655 0.1876 -0.1806
vn -0.3925 -0.8841 -0.2534
vn -0.3923 -0.8568 -0.3345
vn -0.2196 0.9054 0.3634
vn -0.6753 -0.6683 -0.3120
vn 0.1689 0.9617 -0.2158
vn -0.6544 -0.6680 -0.3543
vn -0.9022 0.3149 -0.2949
vn -0.6499 0.0329 0.7593
vn -0.5069 0.1472 0.8493
vn -0.1738 -0.8387 -0.5162
vn -0.0096 -0.0566 0.9984
vn -0.1858 0.4916 0.8507
vn -0.0546 0.0014 0.9985
vn 0.9961 -0.0000 0.0880
vn -0.2604 0.0000 0.9655
vn 0.5876 -0.0000 0.8091
vn 0.7018 0.4357 0.5636
vn -0.7061 0.4258 -0.5658
vn -0.8167 -0.2256 -0.5312
vn -0.7167 0.3090 -0.6251
vn 0.7207 0.3016 0.6242
vn 0.1730 0.9807 -0.0907
vn 0.6814 0.7173 0.1458
vn 0.9445 0.1883 0.2693
vn 0.8808 -0.4056 0.2443
vn 0.5097 -0.8575 0.0706
vn -0.0451 -0.9814 -0.1864
vn -0.5530 -0.7173 -0.4240
vn -0.8176 -0.1883 -0.5441
vn 0.4191 -0.0000 -0.9079
vn -0.7572 0.4056 -0.5119
vn -0.3843 0.8575 -0.3421
vn -0.0368 -0.2017 0.9787
vn -0.0508 0.9833 -0.1746
vn -0.5619 0.7191 -0.4088
vn -0.8271 0.1887 -0.5295
vn -0.7642 -0.4064 -0.5009
vn -0.3701 -0.8533 -0.3672
vn 0.1658 -0.9833 -0.0746
vn 0.6756 -0.7191 0.1625
vn 0.9394 -0.1887 0.2860
vn 0.8888 0.4037 0.2168
vn 0.5195 0.8533 0.0435
vn -0.2238 0.9389 -0.2614
vn -0.6740 0.5724 -0.4670
vn -0.8401 0.0000 -0.5424
vn -0.6617 -0.5703 -0.4867
vn -0.2238 -0.9389 -0.2614
vn 0.3441 -0.9389 0.0008
vn 0.7926 -0.5724 0.2100
vn 0.9578 0.0000 0.2875
vn 0.7996 0.5703 0.1880
vn 0.3528 0.9355 -0.0208
vn 0.7744 0.5521 -0.3090
vn 0.9454 0.2211 -0.2396
vn 0.9325 -0.2794 -0.2288
vn 0.6751 -0.6984 -0.2375
vn -0.0606 -0.9868 -0.1500
vn -0.4993 -0.7489 -0.4357
vn -0.7600 -0.2269 -0.6090
vn -0.7220 0.3728 -0.5829
vn -0.6889 0.2772 -0.6698
vn 0.3150 0.8938 -0.3191
vn -0.4173 -0.7330 -0.5373
vn -0.4229 0.6647 -0.6159
vn 0.2309 0.0222 0.9727
vn 0.5461 0.7523 0.3686
vn 0.9999 -0.0126 0.0032
vn 1.0000 0.0000 -0.0070
vn 0.7057 0.0000 -0.7085
vn -0.6745 -0.2035 0.7097
vn 0.6707 -0.2224 -0.7076
vn 0.2075 -0.9595 -0.1904
vn 0.1872 -0.9802 0.0645
vn -0.2010 -0.9783 -0.0511
vn -0.2159 -0.9684 0.1250
vn -0.8167 0.2256 -0.5312
vn -0.7773 0.0000 -0.6292
vn -0.7565 0.0000 -0.6540
vn 0.7103 -0.2752 0.6479
vn 0.6255 -0.0000 0.7802
vn 0.7073 0.2764 0.6507
vn 0.7598 -0.1631 0.6293
vn -0.7652 -0.1458 -0.6271
vn -0.0150 0.9874 -0.1575
vn 0.5354 0.8389 0.0976
vn 0.8904 0.3712 0.2636
vn 0.9387 -0.2252 0.2610
vn 0.6570 -0.7428 0.1288
vn 0.1391 -0.9839 -0.1121
vn -0.4216 -0.8389 -0.3442
vn -0.7781 -0.3712 -0.5067
vn 0.4191 -0.0001 -0.9080
vn 0.4191 0.0002 -0.9079
vn 0.4191 -0.0001 -0.9079
vn 0.4192 -0.0000 -0.9079
vn 0.4192 0.0001 -0.9079
vn 0.4192 -0.0002 -0.9079
vn -0.8075 0.2252 -0.5451
vn -0.5241 0.7429 -0.4165
vn 0.0979 -0.2245 0.9695
vn 0.0008 0.5267 0.8500
vn -0.1190 0.3621 0.9245
vn -0.0439 -0.3897 0.9199
vn -0.1353 0.0984 0.9859
vn 0.1357 -0.7449 0.6533
vn -0.2102 0.9345 -0.2873
vn -0.6585 0.5698 -0.4917
vn -0.8240 0.0000 -0.5665
vn -0.6585 -0.5698 -0.4917
vn -0.2384 -0.9428 -0.2330
vn 0.3550 -0.9345 -0.0263
vn 0.8014 -0.5698 0.1823
vn 0.9657 0.0000 0.2597
vn 0.7824 0.5747 0.2399
vn 0.3319 0.9428 0.0303
vn -0.3764 0.8553 -0.3562
vn -0.7485 0.4046 -0.5254
vn -0.8112 -0.1879 -0.5538
vn -0.5683 -0.7203 -0.3977
vn -0.0380 -0.9789 -0.2010
vn 0.5153 -0.8552 0.0554
vn 0.8854 -0.4046 0.2289
vn 0.9476 0.1879 0.2582
vn 0.6713 0.7203 0.1745
vn 0.1606 0.9850 -0.0628
vn 0.5824 0.7941 -0.1738
vn 0.9085 0.3203 -0.2685
vn 0.9524 -0.1460 -0.2674
vn 0.7521 -0.6010 -0.2704
vn 0.2460 -0.9329 -0.2629
vn -0.3616 -0.8506 -0.3819
vn -0.6925 -0.3963 -0.6028
vn -0.7463 0.1835 -0.6398
vn -0.5139 0.7071 -0.4856
vn -0.0776 0.9899 -0.1185
vn -0.2990 -0.4660 -0.8327
vn 0.4001 0.2298 -0.8872
vn 0.7119 -0.2766 0.6455
vn 0.7006 -0.3713 0.6094
vn 0.6208 -0.0447 0.7827
vn 0.7260 0.2253 0.6498
s off
f 2//1 1//1 4//1
f 1//2 2//2 17//2
f 1//3 3//3 5//3
f 1//4 3//4 4//4
f 5//5 6//5 1//5
f 17//6 6//6 1//6
f 6//7 17//7 7//7
f 24//8 6//8 7//8
f 24//9 27//9 6//9
f 5//10 27//10 6//10
f 7//11 10//11 24//11
f 7//12 10//12 9//12
f 30//13 29//13 9//13
f 9//14 10//14 30//14
f 7//15 8//15 31//15
f 7//16 17//16 31//16
f 11//17 5//17 3//17
f 11//18 12//18 5//18
f 14//19 12//19 13//19
f 13//20 15//20 14//20
f 14//21 15//21 12//21
f 5//22 12//22 15//22
f 16//23 15//23 13//23
f 38//24 15//24 16//24
f 15//25 38//25 39//25
f 13//26 12//26 16//26
f 3//27 11//27 4//27
f 4//28 11//28 2//28
f 17//29 2//29 11//29
f 11//30 40//30 17//30
f 16//31 12//31 41//31
f 42//32 41//32 12//32
f 11//33 43//33 40//33
f 42//34 12//34 43//34
f 12//35 11//35 43//35
f 19//36 18//36 21//36
f 18//37 19//37 17//37
f 18//38 20//38 5//38
f 18//39 20//39 21//39
f 5//40 22//40 18//40
f 17//41 22//41 18//41
f 22//42 17//42 23//42
f 24//43 22//43 23//43
f 24//44 27//44 22//44
f 5//45 27//45 22//45
f 23//46 28//46 24//46
f 23//47 28//47 26//47
f 30//48 29//48 26//48
f 26//49 28//49 30//49
f 23//50 25//50 31//50
f 23//51 17//51 31//51
f 32//52 5//52 20//52
f 32//53 33//53 5//53
f 35//54 33//54 34//54
f 34//55 36//55 35//55
f 35//56 36//56 33//56
f 5//57 33//57 36//57
f 37//58 36//58 34//58
f 38//59 36//59 37//59
f 36//60 38//60 39//60
f 34//61 33//61 37//61
f 20//62 32//62 21//62
f 21//63 32//63 19//63
f 17//64 19//64 32//64
f 32//65 40//65 17//65
f 37//66 33//66 41//66
f 42//67 41//67 33//67
f 32//68 43//68 40//68
f 42//69 33//69 43//69
f 33//70 32//70 43//70
f 25//71 8//71 31//71
f 15//72 36//72 39//72
f 15//73 36//73 5//73
f 24//74 101//74 100//74
f 101//75 24//75 10//75
f 100//76 24//76 28//76
f 45//77 99//77 98//77
f 44//78 10//78 46//78
f 45//79 28//79 46//79
f 48//80 75//80 76//80
f 50//81 76//81 77//81
f 51//82 77//82 78//82
f 78//83 79//83 55//83
f 79//84 80//84 57//84
f 80//85 81//85 59//85
f 59//86 81//86 82//86
f 61//87 82//87 83//87
f 55//88 63//88 53//88
f 83//89 84//89 64//89
f 84//90 75//90 48//90
f 60//91 49//91 62//91
f 93//92 94//92 65//92
f 92//93 93//93 74//93
f 91//94 92//94 73//94
f 90//95 91//95 72//95
f 70//96 89//96 90//96
f 88//97 89//97 70//97
f 87//98 88//98 69//98
f 86//99 87//99 68//99
f 66//100 85//100 86//100
f 65//101 94//101 85//101
f 74//102 65//102 75//102
f 73//103 74//103 84//103
f 72//104 73//104 83//104
f 81//105 71//105 72//105
f 70//106 71//106 81//106
f 69//107 70//107 80//107
f 68//108 69//108 79//108
f 67//109 68//109 78//109
f 76//110 66//110 67//110
f 75//111 65//111 66//111
f 94//112 47//112 49//112
f 49//113 30//113 86//113
f 30//114 52//114 87//114
f 52//115 54//115 88//115
f 54//116 56//116 89//116
f 56//117 58//117 90//117
f 58//118 60//118 91//118
f 60//119 62//119 92//119
f 62//120 10//120 93//120
f 93//121 10//121 47//121
f 10//122 47//122 49//122
f 54//123 28//123 30//123
f 54//124 56//124 28//124
f 58//125 46//125 56//125
f 95//126 8//126 25//126
f 95//127 96//127 8//127
f 96//128 95//128 29//128
f 9//129 29//129 96//129
f 29//130 95//130 26//130
f 25//131 23//131 95//131
f 23//132 26//132 95//132
f 7//133 9//133 96//133
f 8//134 7//134 96//134
f 99//135 44//135 97//135
f 99//136 97//136 98//136
f 98//137 97//137 46//137
f 101//138 44//138 99//138
f 101//139 99//139 100//139
f 100//140 99//140 45//140
f 101//141 10//141 44//141
f 100//142 28//142 45//142
f 48//143 76//143 50//143
f 50//144 77//144 51//144
f 51//145 78//145 53//145
f 78//146 55//146 53//146
f 79//147 57//147 55//147
f 80//148 59//148 57//148
f 59//149 82//149 61//149
f 61//150 83//150 63//150
f 51//151 48//151 50//151
f 48//152 51//152 64//152
f 64//153 53//153 63//153
f 51//154 53//154 64//154
f 63//155 55//155 61//155
f 61//156 57//156 59//156
f 55//88 57//88 61//88
f 83//157 64//157 63//157
f 84//158 48//158 64//158
f 10//159 62//159 47//159
f 47//160 62//160 49//160
f 49//161 60//161 30//161
f 30//162 58//162 52//162
f 60//163 58//163 30//163
f 52//164 56//164 54//164
f 56//160 52//160 58//160
f 93//165 65//165 74//165
f 92//166 74//166 73//166
f 91//167 73//167 72//167
f 90//168 72//168 71//168
f 70//169 90//169 71//169
f 88//170 70//170 69//170
f 87//171 69//171 68//171
f 86//172 68//172 67//172
f 66//173 86//173 67//173
f 65//174 85//174 66//174
f 74//175 75//175 84//175
f 73//176 84//176 83//176
f 72//177 83//177 82//177
f 81//178 72//178 82//178
f 70//179 81//179 80//179
f 69//180 80//180 79//180
f 68//181 79//181 78//181
f 67//182 78//182 77//182
f 76//183 67//183 77//183
f 75//184 66//184 76//184
f 94//185 49//185 85//185
f 49//186 86//186 85//186
f 30//187 87//187 86//187
f 52//188 88//188 87//188
f 54//189 89//189 88//189
f 56//190 90//190 89//190
f 58//191 91//191 90//191
f 60//192 92//192 91//192
f 62//193 93//193 92//193
f 93//194 47//194 94//194
f 10//195 49//195 30//195
f 54//196 30//196 52//196
f 46//197 62//197 10//197
f 46//198 60//198 62//198
f 56//199 46//199 28//199
f 46//200 58//200 60//200
