# Blender v2.80 (sub 75) OBJ File: 'doe.blend'
# www.blender.org
v -0.014483 -0.068451 0.350341
v -0.128708 -0.087425 0.291659
v -0.079264 -0.182811 0.000000
v -0.118573 -0.086358 0.291659
v 0.104557 0.000000 0.369583
v -0.007377 -0.049435 0.325351
v -0.057713 -0.045027 0.542762
v -0.229544 -0.013978 0.534822
v -0.111783 -0.034012 0.624072
v -0.090773 -0.037346 0.644198
v -0.020477 -0.042548 0.173174
v 0.265188 -0.067617 0.221088
v 0.416011 -0.192942 0.000000
v 0.219587 -0.071084 0.323646
v 0.305823 -0.033823 0.423864
v 0.337273 -0.060207 0.283108
v -0.124124 -0.000000 0.444854
v -0.014483 0.068451 0.350341
v -0.128708 0.087425 0.288484
v -0.079264 0.182811 0.000000
v -0.118573 0.086358 0.291659
v -0.007377 0.049435 0.325351
v -0.056646 0.043066 0.542454
v -0.036506 -0.001305 0.521269
v -0.229179 0.016135 0.534717
v -0.110959 0.033932 0.623835
v 0.001267 0.000000 0.434145
v -0.089872 0.037016 0.643939
v -0.144713 0.000204 0.612766
v -0.120223 0.000263 0.633198
v -0.132022 0.000672 0.518736
v -0.020476 0.042548 0.173174
v 0.265188 0.067617 0.221088
v 0.416011 0.192942 0.000000
v 0.219587 0.071084 0.323646
v 0.305823 0.033823 0.423864
v 0.337273 0.060207 0.283108
v 0.389217 0.000000 0.412688
v 0.297289 0.000000 0.520502
v -0.062553 0.000000 0.256472
v 0.299095 0.000000 0.253043
v 0.238716 0.000000 0.217004
v 0.059765 0.000000 0.215289
v 0.048627 -0.081552 0.415461
v 0.048627 0.081552 0.415461
v -0.013205 0.000000 0.562965
v -0.106601 -0.019003 0.640263
v -0.140020 -0.001077 0.755801
v -0.115461 -0.010747 0.637038
v -0.140679 -0.001134 0.755561
v -0.141242 -0.000757 0.755356
v -0.113723 0.013358 0.637671
v -0.141495 -0.000091 0.755264
v -0.103788 0.020000 0.641287
v -0.141341 0.000609 0.755320
v -0.092172 0.019003 0.645515
v -0.140838 0.001077 0.755503
v -0.083312 0.010747 0.648740
v -0.140180 0.001134 0.755743
v -0.080592 -0.001614 0.649730
v -0.139617 0.000757 0.755948
v -0.085051 -0.013358 0.648107
v -0.139364 0.000091 0.756040
v -0.139518 -0.000609 0.755984
v -0.119908 -0.010867 0.699271
v -0.125763 -0.008792 0.697140
v -0.129381 -0.003358 0.695823
v -0.129381 0.003358 0.695823
v -0.125763 0.008792 0.697140
v -0.119908 0.010867 0.699271
v -0.114053 0.008792 0.701402
v -0.110435 0.003358 0.702719
v -0.110435 -0.003358 0.702719
v -0.114053 -0.008792 0.701402
v -0.129093 -0.005901 0.727853
v -0.132477 -0.005464 0.726621
v -0.134980 -0.002940 0.725710
v -0.135645 0.000707 0.725468
v -0.134218 0.004084 0.725987
v -0.131244 0.005901 0.727070
v -0.127860 0.005464 0.728302
v -0.125357 0.002940 0.729213
v -0.124692 -0.000707 0.729455
v -0.126119 -0.004084 0.728935
v -0.120227 -0.010669 0.667229
v -0.123954 -0.001847 0.665873
v -0.122217 0.007680 0.666505
v -0.115679 0.014274 0.668885
v -0.106837 0.015416 0.672103
v -0.099068 0.010669 0.674930
v -0.095341 0.001847 0.676287
v -0.097078 -0.007680 0.675655
v -0.103616 -0.014274 0.673275
v -0.112458 -0.015416 0.670057
v -0.222729 0.010174 0.563867
v -0.222729 -0.010174 0.563867
vn -0.1040 0.9877 -0.1169
vn 0.1112 0.8617 -0.4951
vn 0.4648 -0.8635 0.1959
vn 0.0127 0.9499 -0.3124
vn -0.5014 0.7513 0.4291
vn -0.7284 -0.4295 -0.5339
vn 0.4649 0.8808 0.0898
vn -0.9158 0.3366 -0.2189
vn -0.6498 0.7102 -0.2711
vn 0.2410 -0.8907 0.3856
vn -0.9052 0.2835 -0.3165
vn -0.1735 -0.9847 0.0180
vn -0.6018 -0.3405 0.7224
vn -0.6781 -0.3404 0.6514
vn -0.0581 -0.5370 -0.8416
vn 0.5122 0.8576 0.0470
vn 0.7441 0.3726 -0.5544
vn -0.1317 -0.9481 0.2893
vn -0.8556 -0.3384 -0.3918
vn -0.0030 -0.9365 0.3508
vn -0.2953 0.9502 -0.0992
vn -0.2151 -0.9554 0.2023
vn 0.9655 0.1876 0.1806
vn 0.3925 -0.8841 0.2534
vn 0.3923 -0.8568 0.3345
vn 0.2196 0.9054 -0.3634
vn 0.6753 -0.6683 0.3120
vn -0.1008 0.9574 0.2705
vn 0.6629 -0.6587 0.3560
vn 0.9022 0.3149 0.2949
vn 0.6499 0.0329 -0.7593
vn 0.5069 0.1472 -0.8493
vn 0.1738 -0.8387 0.5162
vn 0.0096 -0.0566 -0.9984
vn 0.1858 0.4916 -0.8507
vn 0.0211 0.9661 0.2574
vn -0.1201 0.8650 0.4871
vn -0.4648 -0.8635 -0.1959
vn -0.0127 0.9499 0.3124
vn 0.5014 0.7513 -0.4291
vn 0.7284 -0.4295 0.5339
vn -0.4547 0.8873 -0.0772
vn 0.9236 0.3147 0.2188
vn 0.6242 0.7288 0.2815
vn -0.2410 -0.8907 -0.3856
vn 0.9119 0.2639 0.3143
vn 0.1529 -0.9882 -0.0088
vn 0.5974 -0.3632 -0.7150
vn 0.6700 -0.3642 -0.6469
vn 0.0489 -0.5525 0.8321
vn -0.4752 0.8779 -0.0588
vn -0.7441 0.3726 0.5544
vn 0.1317 -0.9481 -0.2893
vn 0.8556 -0.3384 0.3918
vn 0.0030 -0.9365 -0.3508
vn 0.2953 0.9502 0.0992
vn 0.2151 -0.9554 -0.2023
vn -0.9655 0.1876 -0.1806
vn -0.3925 -0.8841 -0.2534
vn -0.3923 -0.8568 -0.3345
vn -0.2196 0.9054 0.3634
vn -0.6753 -0.6683 -0.3120
vn 0.1689 0.9617 -0.2158
vn -0.6544 -0.6680 -0.3543
vn -0.9022 0.3149 -0.2949
vn -0.6499 0.0329 0.7593
vn -0.5069 0.1472 0.8493
vn -0.1738 -0.8387 -0.5162
vn -0.0096 -0.0566 0.9984
vn -0.1858 0.4916 0.8507
vn 0.1625 0.0015 0.9867
vn 0.9961 -0.0000 0.0880
vn -0.2604 0.0000 0.9655
vn 0.7791 -0.0000 0.6269
vn 0.8410 0.2904 0.4564
vn -0.8434 0.2845 -0.4558
vn -0.9222 0.0000 -0.3866
vn -0.7482 0.3958 -0.5325
vn 0.7508 0.3922 0.5315
vn 0.1648 0.9807 -0.1048
vn 0.6911 0.7173 0.0885
vn 0.9636 0.1883 0.1897
vn 0.8981 -0.4056 0.1700
vn 0.5138 -0.8575 0.0279
vn -0.0605 -0.9814 -0.1820
vn -0.5864 -0.7173 -0.3764
vn -0.8601 -0.1883 -0.4741
vn 0.3420 0.0000 -0.9397
vn -0.7973 0.4056 -0.4470
vn -0.4115 0.8575 -0.3089
vn -0.3232 -0.0766 0.9432
vn -0.0652 0.9833 -0.1697
vn -0.5940 0.7191 -0.3606
vn -0.8683 0.1887 -0.4587
vn -0.8032 -0.4064 -0.4355
vn -0.3994 -0.8533 -0.3350
vn 0.1590 -0.9833 -0.0881
vn 0.6868 -0.7191 0.1056
vn 0.9600 -0.1888 0.2068
vn 0.9038 0.4037 0.1419
vn 0.5214 0.8533 0.0001
vn -0.2448 0.9389 -0.2418
vn -0.7106 0.5724 -0.4092
vn -0.8824 0.0000 -0.4705
vn -0.7000 -0.5703 -0.4298
vn -0.2358 -0.9355 -0.2633
vn 0.3430 -0.9389 -0.0279
vn 0.8074 -0.5724 0.1432
vn 0.9784 0.0000 0.2067
vn 0.8125 0.5703 0.1207
vn 0.3499 0.9355 -0.0501
vn 0.6726 0.7387 0.0433
vn 0.8928 0.4314 0.1298
vn 0.8616 -0.4820 0.1589
vn 0.5400 -0.8396 0.0585
vn -0.0303 -0.9882 -0.1500
vn -0.5431 -0.7387 -0.3992
vn -0.8638 -0.2261 -0.4502
vn -0.8204 0.3715 -0.4347
vn -0.7780 0.2774 -0.5637
vn 0.7641 0.6253 -0.1587
vn 0.0620 -0.3047 -0.9504
vn -0.1370 0.3805 -0.9146
vn -0.3300 0.1240 0.9358
vn 0.5602 0.7437 0.3647
vn 0.9758 -0.0126 -0.2185
vn 0.9736 0.0000 -0.2284
vn 0.5311 0.0000 -0.8473
vn -0.5004 -0.2035 0.8415
vn 0.4972 -0.2224 -0.8386
vn 0.1602 -0.9595 -0.2317
vn 0.1969 -0.9802 0.0214
vn -0.2073 -0.9783 -0.0053
vn -0.1828 -0.9684 0.1697
vn -0.0281 0.9874 -0.1557
vn 0.5417 0.8389 0.0527
vn 0.9092 0.3713 0.1884
vn 0.9572 -0.2252 0.1819
vn 0.6654 -0.7429 0.0736
vn 0.1294 -0.9839 -0.1233
vn -0.4488 -0.8389 -0.3079
vn -0.8176 -0.3712 -0.4401
vn 0.3421 0.0000 -0.9397
vn -0.8501 0.2252 -0.4759
vn -0.5570 0.7428 -0.3714
vn -0.3420 0.0000 0.9397
vn -0.3739 0.1572 0.9141
vn -0.3493 -0.1429 0.9260
vn -0.3854 -0.0109 0.9227
vn -0.2334 0.9345 -0.2688
vn -0.6972 0.5698 -0.4351
vn -0.8684 0.0000 -0.4959
vn -0.6972 -0.5698 -0.4351
vn -0.2569 -0.9428 -0.2123
vn 0.3516 -0.9345 -0.0558
vn 0.8138 -0.5698 0.1149
vn 0.9840 0.0000 0.1783
vn 0.7997 0.5747 0.1739
vn 0.3333 0.9428 0.0025
vn -0.4048 0.8553 -0.3236
vn -0.7897 0.4046 -0.4612
vn -0.8545 -0.1879 -0.4843
vn -0.5994 -0.7203 -0.3490
vn -0.0698 -0.9850 -0.1577
vn 0.5181 -0.8552 0.0123
vn 0.9014 -0.4046 0.1543
vn 0.9659 0.1879 0.1783
vn 0.6835 0.7203 0.1180
vn 0.1548 0.9850 -0.0759
vn 0.4994 0.8630 0.0766
vn 0.9039 0.4037 0.1416
vn 0.9777 -0.1849 0.0997
vn 0.6969 -0.7143 0.0646
vn 0.1728 -0.9766 -0.1282
vn -0.4318 -0.8630 -0.2623
vn -0.7834 -0.4037 -0.4725
vn -0.8482 0.1875 -0.4955
vn -0.5754 0.7143 -0.3984
vn -0.0786 0.9878 -0.1344
vn -0.5573 -0.6033 -0.5705
vn -0.4799 0.2620 0.8373
vn 0.7553 -0.2770 0.5939
vn 0.7402 -0.3595 0.5682
vn 0.7187 -0.0310 0.6946
vn 0.7689 0.2174 0.6012
s off
f 2//1 1//1 4//1
f 1//2 2//2 17//2
f 1//3 3//3 5//3
f 1//4 3//4 4//4
f 5//5 6//5 1//5
f 17//6 6//6 1//6
f 6//7 17//7 7//7
f 24//8 6//8 7//8
f 24//9 27//9 6//9
f 5//10 27//10 6//10
f 7//11 10//11 24//11
f 7//12 10//12 9//12
f 30//13 29//13 9//13
f 9//14 10//14 30//14
f 7//15 8//15 31//15
f 7//16 17//16 31//16
f 11//17 5//17 3//17
f 11//18 12//18 5//18
f 14//19 12//19 13//19
f 13//20 15//20 14//20
f 14//21 15//21 12//21
f 5//22 12//22 15//22
f 16//23 15//23 13//23
f 38//24 15//24 16//24
f 15//25 38//25 39//25
f 13//26 12//26 16//26
f 3//27 11//27 4//27
f 4//28 11//28 2//28
f 17//29 2//29 11//29
f 11//30 40//30 17//30
f 16//31 12//31 41//31
f 42//32 41//32 12//32
f 11//33 43//33 40//33
f 42//34 12//34 43//34
f 12//35 11//35 43//35
f 19//36 18//36 21//36
f 18//37 19//37 17//37
f 18//38 20//38 5//38
f 18//39 20//39 21//39
f 5//40 22//40 18//40
f 17//41 22//41 18//41
f 22//42 17//42 23//42
f 24//43 22//43 23//43
f 24//44 27//44 22//44
f 5//45 27//45 22//45
f 23//46 28//46 24//46
f 23//47 28//47 26//47
f 30//48 29//48 26//48
f 26//49 28//49 30//49
f 23//50 25//50 31//50
f 23//51 17//51 31//51
f 32//52 5//52 20//52
f 32//53 33//53 5//53
f 35//54 33//54 34//54
f 34//55 36//55 35//55
f 35//56 36//56 33//56
f 5//57 33//57 36//57
f 37//58 36//58 34//58
f 38//59 36//59 37//59
f 36//60 38//60 39//60
f 34//61 33//61 37//61
f 20//62 32//62 21//62
f 21//63 32//63 19//63
f 17//64 19//64 32//64
f 32//65 40//65 17//65
f 37//66 33//66 41//66
f 42//67 41//67 33//67
f 32//68 43//68 40//68
f 42//69 33//69 43//69
f 33//70 32//70 43//70
f 25//71 8//71 31//71
f 15//72 36//72 39//72
f 15//73 36//73 5//73
f 24//74 44//74 45//74
f 24//75 10//75 44//75
f 24//76 28//76 45//76
f 45//77 44//77 46//77
f 44//78 10//78 46//78
f 45//79 28//79 46//79
f 48//80 75//80 76//80
f 50//81 76//81 77//81
f 51//82 77//82 78//82
f 78//83 79//83 55//83
f 79//84 80//84 57//84
f 80//85 81//85 59//85
f 59//86 81//86 82//86
f 61//87 82//87 83//87
f 55//88 63//88 53//88
f 83//89 84//89 64//89
f 84//90 75//90 48//90
f 62//91 47//91 10//91
f 93//92 94//92 65//92
f 92//93 93//93 74//93
f 91//94 92//94 73//94
f 90//95 91//95 72//95
f 70//96 89//96 90//96
f 88//97 89//97 70//97
f 87//98 88//98 69//98
f 86//99 87//99 68//99
f 66//100 85//100 86//100
f 65//101 94//101 85//101
f 74//102 65//102 75//102
f 73//103 74//103 84//103
f 72//104 73//104 83//104
f 81//105 71//105 72//105
f 80//106 70//106 71//106
f 69//107 70//107 80//107
f 68//108 69//108 79//108
f 67//109 68//109 78//109
f 76//110 66//110 67//110
f 75//111 65//111 66//111
f 94//112 47//112 49//112
f 49//113 30//113 86//113
f 30//114 52//114 87//114
f 52//115 54//115 88//115
f 54//116 56//116 89//116
f 89//117 56//117 58//117
f 58//118 60//118 91//118
f 60//119 62//119 92//119
f 62//120 10//120 93//120
f 93//121 10//121 47//121
f 47//122 49//122 30//122
f 28//123 30//123 52//123
f 54//124 56//124 28//124
f 58//125 46//125 56//125
f 95//126 8//126 25//126
f 95//127 96//127 8//127
f 96//128 95//128 29//128
f 9//129 29//129 96//129
f 29//130 95//130 26//130
f 25//131 23//131 95//131
f 23//132 26//132 95//132
f 7//133 9//133 96//133
f 8//134 7//134 96//134
f 48//135 76//135 50//135
f 50//136 77//136 51//136
f 51//137 78//137 53//137
f 78//138 55//138 53//138
f 79//139 57//139 55//139
f 80//140 59//140 57//140
f 59//141 82//141 61//141
f 61//142 83//142 63//142
f 51//143 48//143 50//143
f 48//88 51//88 64//88
f 64//143 53//143 63//143
f 51//88 53//88 64//88
f 63//88 55//88 61//88
f 61//88 57//88 59//88
f 55//88 57//88 61//88
f 83//144 64//144 63//144
f 84//145 48//145 64//145
f 47//146 62//146 49//146
f 49//147 60//147 30//147
f 62//146 60//146 49//146
f 30//148 58//148 52//148
f 52//146 56//146 54//146
f 58//146 56//146 52//146
f 58//149 30//149 60//149
f 93//150 65//150 74//150
f 92//151 74//151 73//151
f 91//152 73//152 72//152
f 90//153 72//153 71//153
f 70//154 90//154 71//154
f 88//155 70//155 69//155
f 87//156 69//156 68//156
f 86//157 68//157 67//157
f 66//158 86//158 67//158
f 65//159 85//159 66//159
f 74//160 75//160 84//160
f 73//161 84//161 83//161
f 72//162 83//162 82//162
f 81//163 72//163 82//163
f 80//164 71//164 81//164
f 69//165 80//165 79//165
f 68//166 79//166 78//166
f 67//167 78//167 77//167
f 76//168 67//168 77//168
f 75//169 66//169 76//169
f 94//170 49//170 85//170
f 49//171 86//171 85//171
f 30//172 87//172 86//172
f 52//173 88//173 87//173
f 54//174 89//174 88//174
f 89//175 58//175 90//175
f 58//176 91//176 90//176
f 60//177 92//177 91//177
f 62//178 93//178 92//178
f 93//179 47//179 94//179
f 47//180 30//180 10//180
f 28//181 52//181 54//181
f 46//182 62//182 10//182
f 46//183 60//183 62//183
f 56//184 46//184 28//184
f 46//185 58//185 60//185
