# Blender v2.80 (sub 75) OBJ File: 'doe.blend'
# www.blender.org
v -0.558580 0.704696 0.010000
v -0.619124 1.048063 0.010000
v -0.764523 0.886062 0.010000
v -0.792872 0.663384 0.010000
v -0.718923 0.613909 0.010000
v -0.539365 0.595724 0.010000
v -0.318517 0.640628 0.010000
v -0.288328 0.752349 0.010000
v -0.428000 0.993731 0.010000
v -0.122674 0.284215 0.010000
v -0.276300 0.586760 0.010000
v -0.940292 0.507944 0.010000
v -1.272590 0.081454 0.010000
v -1.102792 -0.491634 0.010000
v -0.149364 0.006848 0.010000
v -0.033691 0.165498 0.010000
v 0.043446 0.313507 0.010000
v -0.061913 0.455388 0.010000
v 0.876696 0.396337 0.010000
v 1.048335 0.540910 0.010000
v 1.006497 0.736817 0.010000
v 0.742589 0.858351 0.010000
v 0.573433 0.652038 0.010000
v 0.598142 0.403614 0.010000
v 0.764475 0.299289 0.010000
v 0.917504 0.232665 0.010000
v 1.051690 0.347665 0.010000
vn 0.0000 0.0000 1.0000
s off
f 1//1 2//1 3//1
f 1//1 3//1 4//1
f 1//1 4//1 5//1
f 1//1 5//1 6//1
f 1//1 6//1 7//1
f 1//1 7//1 8//1
f 1//1 8//1 9//1
f 1//1 9//1 2//1
f 10//1 11//1 12//1
f 10//1 12//1 13//1
f 10//1 13//1 14//1
f 10//1 14//1 15//1
f 10//1 15//1 16//1
f 10//1 16//1 17//1
f 10//1 17//1 18//1
f 10//1 18//1 11//1
f 19//1 20//1 21//1
f 19//1 21//1 22//1
f 19//1 22//1 23//1
f 19//1 23//1 24//1
f 19//1 24//1 25//1
f 19//1 25//1 26//1
f 19//1 26//1 27//1
f 19//1 27//1 20//1
