# Blender v2.80 (sub 75) OBJ File: 'stag.blend'
# www.blender.org
v -0.068246 0.163823 0.327387
v -0.109030 0.272091 0.271561
v -0.212085 0.228604 0.000000
v -0.074156 0.244705 0.291659
v 0.000000 -0.013945 0.411514
v -0.035035 0.156717 0.319868
v -0.043845 0.206261 0.551638
v -0.014853 0.359442 0.630681
v -0.033770 0.212694 0.649175
v -0.036979 0.175890 0.670955
v -0.034557 0.204265 0.205076
v -0.067412 -0.151296 0.192561
v -0.192737 -0.302120 0.000000
v -0.070879 -0.105696 0.323646
v -0.033618 -0.191932 0.423864
v -0.060002 -0.223382 0.283108
v -0.079635 0.114324 0.689651
v -0.055528 0.227005 0.790062
v -0.051386 0.153929 0.716449
v -0.044700 0.169918 0.688363
v 0.000000 0.347633 0.413090
v 0.000000 0.198974 0.522832
v 0.000000 0.348533 0.655073
v 0.000000 0.148072 0.439889
v 0.000000 0.249092 0.640902
v 0.000000 0.227432 0.668313
v 0.000000 0.283431 0.568476
v 0.000000 -0.275325 0.412688
v 0.000000 -0.272811 0.575557
v 0.000000 0.149269 0.676595
v 0.000000 0.211893 0.256472
v 0.000000 -0.185204 0.253042
v 0.000000 -0.124825 0.217004
v 0.000000 0.089574 0.215289
v 0.000000 -0.152947 0.394327
v 0.068246 0.163823 0.327387
v 0.109030 0.272091 0.271561
v 0.212085 0.228604 0.000000
v 0.074156 0.244705 0.291659
v 0.035035 0.156717 0.319868
v 0.043845 0.206261 0.551638
v 0.014853 0.359442 0.630681
v 0.033770 0.212694 0.649175
v 0.036979 0.175890 0.670955
v 0.034557 0.204265 0.205076
v 0.067412 -0.151296 0.192561
v 0.192737 -0.302120 0.000000
v 0.070879 -0.105696 0.323646
v 0.033618 -0.191932 0.423864
v 0.060002 -0.223382 0.283108
v 0.079635 0.114324 0.689651
v 0.055528 0.227005 0.790062
v 0.051386 0.153929 0.716449
v 0.044700 0.169918 0.688363
vn -0.2187 0.3809 0.8984
vn 0.7954 -0.0128 -0.6059
vn -0.9135 -0.1774 0.3662
vn 0.9001 -0.1193 -0.4191
vn 0.2915 0.4983 0.8165
vn -0.1039 0.4517 -0.8861
vn 0.9720 -0.2193 0.0838
vn 0.0258 0.9778 -0.2080
vn -0.8678 -0.0881 0.4890
vn -0.9679 0.2370 0.0843
vn 0.8946 0.3808 -0.2337
vn -0.9597 -0.0485 0.2767
vn 0.2984 0.9289 0.2193
vn -0.9857 0.1407 0.0925
vn 0.3670 -0.1312 0.9209
vn -0.5700 0.6447 0.5094
vn -0.5809 0.4515 0.6773
vn -0.5477 0.4632 -0.6968
vn 0.8711 -0.4540 -0.1876
vn 0.6371 -0.4741 -0.6078
vn -0.9657 0.0806 0.2468
vn -0.5170 0.8042 -0.2934
vn -0.9365 0.0030 0.3508
vn 0.9464 0.3119 -0.0835
vn -0.9651 0.1945 0.1752
vn 0.1876 -0.9655 0.1806
vn -0.8850 -0.3907 0.2532
vn -0.9272 -0.3746 0.0058
vn 0.8889 -0.3202 -0.3277
vn -0.3935 -0.8888 0.2351
vn 0.6393 0.7661 -0.0654
vn -0.2033 -0.7901 0.5783
vn -0.7933 0.4910 -0.3601
vn -0.9791 0.1140 -0.1682
vn -0.8412 0.5310 0.1020
vn -0.8057 0.5698 -0.1619
vn -0.8330 0.5190 -0.1914
vn -0.0425 -0.2632 -0.9638
vn 0.4020 -0.6923 0.5993
vn 0.8550 -0.3432 0.3888
vn 0.6154 0.0830 0.7838
vn 0.5379 0.8021 0.2593
vn -0.6281 -0.5880 0.5096
vn 0.1741 -0.7634 -0.6220
vn 0.4562 -0.4561 -0.7641
vn -0.8012 -0.1909 0.5671
vn 0.3435 -0.0075 -0.9391
vn 0.3010 0.0058 -0.9536
vn 0.2942 -0.8323 -0.4698
vn 0.7121 -0.0862 0.6968
vn -0.4346 0.7512 0.4968
vn 0.2187 0.3809 0.8984
vn -0.7954 -0.0128 -0.6059
vn 0.9135 -0.1774 0.3662
vn -0.9001 -0.1193 -0.4191
vn -0.2915 0.4983 0.8165
vn 0.1039 0.4517 -0.8861
vn -0.9720 -0.2193 0.0838
vn -0.0258 0.9778 -0.2080
vn 0.8678 -0.0881 0.4890
vn 0.9679 0.2370 0.0843
vn -0.8946 0.3808 -0.2337
vn 0.9597 -0.0485 0.2767
vn -0.2984 0.9289 0.2193
vn 0.9857 0.1407 0.0925
vn -0.3670 -0.1312 0.9209
vn 0.5700 0.6447 0.5094
vn 0.5809 0.4515 0.6773
vn 0.5477 0.4632 -0.6968
vn -0.8711 -0.4540 -0.1876
vn -0.6371 -0.4741 -0.6078
vn 0.9657 0.0806 0.2468
vn 0.5170 0.8042 -0.2934
vn 0.9365 0.0030 0.3508
vn -0.9464 0.3119 -0.0835
vn 0.9651 0.1945 0.1752
vn -0.1876 -0.9655 0.1806
vn 0.8850 -0.3907 0.2532
vn 0.9272 -0.3746 0.0058
vn -0.8889 -0.3202 -0.3277
vn 0.3935 -0.8888 0.2351
vn -0.6393 0.7661 -0.0654
vn 0.2033 -0.7901 0.5783
vn 0.7933 0.4910 -0.3601
vn 0.9791 0.1140 -0.1682
vn 0.8412 0.5310 0.1020
vn 0.8057 0.5698 -0.1619
vn 0.8330 0.5190 -0.1914
vn 0.0425 -0.2632 -0.9638
vn -0.4020 -0.6923 0.5993
vn -0.8550 -0.3432 0.3888
vn -0.6154 0.0830 0.7838
vn -0.5379 0.8021 0.2593
vn 0.6281 -0.5880 0.5096
vn -0.1741 -0.7634 -0.6220
vn -0.4562 -0.4561 -0.7641
vn 0.8012 -0.1909 0.5671
vn -0.3435 -0.0075 -0.9391
vn -0.3010 0.0058 -0.9536
vn -0.2942 -0.8323 -0.4698
vn -0.7121 -0.0862 0.6968
vn 0.4346 0.7512 0.4968
vn 0.0000 0.6333 -0.7739
vn 0.0000 0.9129 0.4083
s off
f 2//1 1//1 4//1
f 1//2 2//2 21//2
f 1//3 3//3 5//3
f 1//4 3//4 4//4
f 5//5 6//5 1//5
f 21//6 6//6 1//6
f 6//7 21//7 7//7
f 22//8 6//8 7//8
f 23//9 8//9 7//9
f 7//10 9//10 23//10
f 22//11 24//11 6//11
f 5//12 24//12 6//12
f 7//13 10//13 22//13
f 7//14 10//14 9//14
f 25//15 23//15 9//15
f 26//16 25//16 9//16
f 9//17 10//17 26//17
f 7//18 8//18 27//18
f 7//19 21//19 27//19
f 11//20 5//20 3//20
f 11//21 12//21 5//21
f 14//22 12//22 13//22
f 13//23 15//23 14//23
f 14//24 15//24 12//24
f 5//25 12//25 15//25
f 16//26 15//26 13//26
f 28//27 15//27 16//27
f 15//28 28//28 29//28
f 13//29 12//29 16//29
f 3//30 11//30 4//30
f 4//31 11//31 2//31
f 21//32 2//32 11//32
f 26//33 20//33 18//33
f 19//34 18//34 20//34
f 20//35 17//35 19//35
f 26//36 10//36 20//36
f 20//37 10//37 17//37
f 10//38 30//38 17//38
f 19//39 17//39 30//39
f 18//40 19//40 26//40
f 19//41 30//41 26//41
f 10//42 30//42 22//42
f 11//43 31//43 21//43
f 16//44 12//44 32//44
f 33//45 32//45 12//45
f 11//46 34//46 31//46
f 33//47 12//47 34//47
f 12//48 11//48 34//48
f 28//49 16//49 32//49
f 35//50 5//50 15//50
f 15//51 29//51 35//51
f 37//52 39//52 36//52
f 36//53 21//53 37//53
f 36//54 5//54 38//54
f 36//55 39//55 38//55
f 5//56 36//56 40//56
f 21//57 36//57 40//57
f 40//58 41//58 21//58
f 22//59 41//59 40//59
f 23//60 41//60 42//60
f 41//61 23//61 43//61
f 22//62 40//62 24//62
f 5//63 40//63 24//63
f 41//64 22//64 44//64
f 41//65 43//65 44//65
f 25//66 43//66 23//66
f 26//67 43//67 25//67
f 43//68 26//68 44//68
f 41//69 27//69 42//69
f 41//70 27//70 21//70
f 45//71 38//71 5//71
f 45//72 5//72 46//72
f 48//73 47//73 46//73
f 47//74 48//74 49//74
f 48//75 46//75 49//75
f 5//76 49//76 46//76
f 50//77 47//77 49//77
f 28//78 50//78 49//78
f 49//79 29//79 28//79
f 47//80 50//80 46//80
f 38//81 39//81 45//81
f 39//82 37//82 45//82
f 21//83 45//83 37//83
f 26//84 52//84 54//84
f 53//85 54//85 52//85
f 54//86 53//86 51//86
f 26//87 54//87 44//87
f 54//88 51//88 44//88
f 44//89 51//89 30//89
f 53//90 30//90 51//90
f 52//91 26//91 53//91
f 53//92 26//92 30//92
f 44//93 22//93 30//93
f 45//94 21//94 31//94
f 50//95 32//95 46//95
f 33//96 46//96 32//96
f 45//97 31//97 34//97
f 33//98 34//98 46//98
f 46//99 34//99 45//99
f 28//100 32//100 50//100
f 35//101 49//101 5//101
f 49//102 35//102 29//102
f 8//103 42//103 27//103
f 8//104 23//104 42//104
