# Blender v2.80 (sub 75) OBJ File: 'stag.blend'
# www.blender.org
v -0.053451 0.163823 0.327387
v -0.103649 0.287392 0.271561
v -0.197290 0.228604 0.000000
v -0.071358 0.267913 0.291659
v 0.015000 -0.013945 0.411514
v -0.034435 0.156717 0.302396
v -0.029050 0.206261 0.551638
v -0.000058 0.359442 0.630681
v -0.018975 0.212694 0.649175
v -0.022184 0.175890 0.670955
v -0.027548 0.169816 0.173174
v -0.052617 -0.151296 0.192561
v -0.177942 -0.302120 0.000000
v -0.056084 -0.105696 0.323646
v -0.018823 -0.191932 0.423864
v -0.045207 -0.223382 0.283108
v -0.064840 0.114324 0.689651
v -0.040732 0.227005 0.790062
v -0.036590 0.153929 0.716449
v -0.029904 0.169918 0.688363
v 0.015000 0.347633 0.413090
v 0.083451 0.163823 0.327387
v 0.133649 0.287392 0.271561
v 0.227290 0.228604 0.000000
v 0.101358 0.267913 0.291659
v 0.064435 0.156717 0.302396
v 0.059050 0.206261 0.551638
v 0.015000 0.198974 0.522832
v 0.030058 0.359442 0.630681
v 0.015000 0.348533 0.655073
v 0.048975 0.212694 0.649175
v 0.015000 0.148072 0.439889
v 0.052184 0.175890 0.670955
v 0.015000 0.249092 0.640902
v 0.015000 0.227432 0.668313
v 0.015000 0.283431 0.568476
v 0.057548 0.169816 0.173174
v 0.082617 -0.151296 0.192561
v 0.207942 -0.302120 0.000000
v 0.086084 -0.105696 0.323646
v 0.048823 -0.191932 0.423864
v 0.075207 -0.223382 0.283108
v 0.015000 -0.275325 0.412688
v 0.015000 -0.272811 0.575557
v 0.094840 0.114324 0.689651
v 0.070732 0.227005 0.790062
v 0.066590 0.153929 0.716449
v 0.059904 0.169918 0.688363
v 0.015000 0.149269 0.676595
v 0.015000 0.211893 0.256472
v 0.015000 -0.185204 0.253042
v 0.015000 -0.124825 0.217004
v 0.015000 0.089574 0.215289
vn -0.4089 0.2325 0.8824
vn 0.7625 0.0176 -0.6467
vn -0.9133 -0.1785 0.3660
vn 0.9168 0.0209 -0.3987
vn 0.7536 0.4949 0.4327
vn -0.6084 0.5101 -0.6080
vn 0.9628 -0.2682 0.0325
vn 0.0342 0.9801 -0.1956
vn -0.8651 -0.0909 0.4934
vn -0.9675 0.2383 0.0842
vn 0.8486 0.4509 -0.2767
vn -0.9406 -0.0586 0.3345
vn 0.2972 0.9293 0.2194
vn -0.9857 0.1407 0.0925
vn 0.3651 -0.1313 0.9217
vn -0.5677 0.6459 0.5104
vn -0.5785 0.4522 0.6788
vn -0.5452 0.4636 -0.6985
vn 0.8701 -0.4556 -0.1882
vn 0.3767 -0.6999 -0.6068
vn -0.9661 0.0900 0.2419
vn -0.5170 0.8042 -0.2934
vn -0.9365 0.0030 0.3508
vn 0.9464 0.3119 -0.0835
vn -0.9649 0.1955 0.1753
vn 0.1876 -0.9655 0.1806
vn -0.8841 -0.3925 0.2534
vn -0.9264 -0.3765 0.0058
vn 0.8889 -0.3202 -0.3277
vn -0.6106 -0.7060 0.3588
vn 0.6322 0.6953 -0.3419
vn -0.3454 -0.7236 0.5976
vn -0.7920 0.4926 -0.3608
vn -0.9791 0.1140 -0.1682
vn -0.8412 0.5310 0.1020
vn -0.8044 0.5721 -0.1605
vn -0.8330 0.5190 -0.1914
vn -0.0423 -0.2633 -0.9638
vn 0.4011 -0.6921 0.6001
vn 0.8541 -0.3442 0.3898
vn 0.6139 0.0832 0.7850
vn 0.5358 0.8034 0.2597
vn -0.4717 -0.6663 0.5775
vn 0.1735 -0.7635 -0.6220
vn 0.4551 -0.4564 -0.7646
vn -0.8387 -0.1738 0.5162
vn 0.3426 -0.0075 -0.9395
vn 0.6041 -0.0949 -0.7912
vn -0.4089 -0.2325 -0.8824
vn 0.7625 -0.0176 0.6467
vn -0.9133 0.1785 -0.3660
vn 0.9168 -0.0209 0.3987
vn 0.7536 -0.4949 -0.4327
vn -0.6084 -0.5101 0.6080
vn 0.9628 0.2682 -0.0325
vn 0.0342 -0.9801 0.1956
vn -0.8651 0.0909 -0.4934
vn -0.9675 -0.2383 -0.0842
vn 0.8486 -0.4509 0.2767
vn -0.9406 0.0586 -0.3345
vn 0.2972 -0.9293 -0.2194
vn -0.9857 -0.1407 -0.0925
vn 0.3651 0.1313 -0.9217
vn -0.5677 -0.6459 -0.5104
vn -0.5785 -0.4522 -0.6788
vn -0.5452 -0.4636 0.6985
vn 0.8701 0.4556 0.1882
vn 0.3767 0.6999 0.6068
vn -0.9661 -0.0900 -0.2419
vn -0.5170 -0.8042 0.2934
vn -0.9365 -0.0030 -0.3508
vn 0.9464 -0.3119 0.0835
vn -0.9649 -0.1955 -0.1753
vn 0.1876 0.9655 -0.1806
vn -0.8841 0.3925 -0.2534
vn -0.9264 0.3765 -0.0058
vn 0.8889 0.3202 0.3277
vn -0.6106 0.7060 -0.3588
vn 0.6322 -0.6953 0.3419
vn -0.3454 0.7236 -0.5976
vn -0.7920 -0.4926 0.3608
vn -0.9791 -0.1140 0.1682
vn -0.8412 -0.5310 -0.1020
vn -0.8044 -0.5721 0.1605
vn -0.8330 -0.5190 0.1914
vn -0.0423 0.2633 0.9638
vn 0.4011 0.6921 -0.6001
vn 0.8541 0.3442 -0.3898
vn 0.6139 -0.0832 -0.7850
vn 0.5358 -0.8034 -0.2597
vn -0.4717 0.6663 -0.5775
vn 0.1735 0.7635 0.6220
vn 0.4551 0.4564 0.7646
vn -0.8387 0.1738 -0.5162
vn 0.3426 0.0075 0.9395
vn 0.6041 0.0949 0.7912
vn -0.0000 -0.9129 -0.4083
vn 0.0000 -0.6333 0.7739
vn -0.0000 -0.8824 -0.4705
vn -0.0000 0.0692 0.9976
s off
f 2//1 1//1 4//1
f 1//2 2//2 21//2
f 1//3 3//3 5//3
f 1//4 3//4 4//4
f 5//5 6//5 1//5
f 21//6 6//6 1//6
f 6//7 21//7 7//7
f 28//8 6//8 7//8
f 30//9 8//9 7//9
f 7//10 9//10 30//10
f 28//11 32//11 6//11
f 5//12 32//12 6//12
f 7//13 10//13 28//13
f 7//14 10//14 9//14
f 34//15 30//15 9//15
f 35//16 34//16 9//16
f 9//17 10//17 35//17
f 7//18 8//18 36//18
f 7//19 21//19 36//19
f 11//20 5//20 3//20
f 11//21 12//21 5//21
f 14//22 12//22 13//22
f 13//23 15//23 14//23
f 14//24 15//24 12//24
f 5//25 12//25 15//25
f 16//26 15//26 13//26
f 43//27 15//27 16//27
f 15//28 43//28 44//28
f 13//29 12//29 16//29
f 3//30 11//30 4//30
f 4//31 11//31 2//31
f 21//32 2//32 11//32
f 35//33 20//33 18//33
f 19//34 18//34 20//34
f 20//35 17//35 19//35
f 35//36 10//36 20//36
f 20//37 10//37 17//37
f 10//38 49//38 17//38
f 19//39 17//39 49//39
f 18//40 19//40 35//40
f 19//41 49//41 35//41
f 10//42 49//42 28//42
f 11//43 50//43 21//43
f 16//44 12//44 51//44
f 52//45 51//45 12//45
f 11//46 53//46 50//46
f 52//47 12//47 53//47
f 12//48 11//48 53//48
f 23//49 22//49 25//49
f 22//50 23//50 21//50
f 22//51 24//51 5//51
f 22//52 24//52 25//52
f 5//53 26//53 22//53
f 21//54 26//54 22//54
f 26//55 21//55 27//55
f 28//56 26//56 27//56
f 30//57 29//57 27//57
f 27//58 31//58 30//58
f 28//59 32//59 26//59
f 5//60 32//60 26//60
f 27//61 33//61 28//61
f 27//62 33//62 31//62
f 34//63 30//63 31//63
f 35//64 34//64 31//64
f 31//65 33//65 35//65
f 27//66 29//66 36//66
f 27//67 21//67 36//67
f 37//68 5//68 24//68
f 37//69 38//69 5//69
f 40//70 38//70 39//70
f 39//71 41//71 40//71
f 40//72 41//72 38//72
f 5//73 38//73 41//73
f 42//74 41//74 39//74
f 43//75 41//75 42//75
f 41//76 43//76 44//76
f 39//77 38//77 42//77
f 24//78 37//78 25//78
f 25//79 37//79 23//79
f 21//80 23//80 37//80
f 35//81 48//81 46//81
f 47//82 46//82 48//82
f 48//83 45//83 47//83
f 35//84 33//84 48//84
f 48//85 33//85 45//85
f 33//86 49//86 45//86
f 47//87 45//87 49//87
f 46//88 47//88 35//88
f 47//89 49//89 35//89
f 33//90 49//90 28//90
f 37//91 50//91 21//91
f 42//92 38//92 51//92
f 52//93 51//93 38//93
f 37//94 53//94 50//94
f 52//95 38//95 53//95
f 38//96 37//96 53//96
f 8//97 29//97 30//97
f 29//98 8//98 36//98
f 15//99 41//99 44//99
f 15//100 41//100 5//100
