# Blender v2.80 (sub 75) OBJ File: ''
# www.blender.org
v -2.231182 0.719596 -1.738662
v -2.757764 0.183443 -1.003270
v -1.999040 0.854887 -0.722122
v -1.227445 0.789645 -1.433421
v -1.509319 0.077869 -2.154173
v -2.455102 -0.296776 -1.888319
v -2.079473 -0.077869 -0.243522
v -1.133689 0.296776 -0.509376
v -0.831028 -0.183443 -1.394425
v -1.589752 -0.854887 -1.675573
v -2.361347 -0.789645 -0.964274
v -1.357610 -0.719596 -0.659033
v -2.712030 -0.318067 -3.790690
v -3.239659 0.025536 -3.751412
v -2.678483 0.311879 -3.784343
v -2.265635 -0.029362 -3.451005
v -2.571673 -0.526604 -3.212063
v -3.173647 -0.492671 -3.397726
v -3.119359 0.526604 -3.387451
v -2.517384 0.492671 -3.201788
v -2.451373 -0.025536 -2.848102
v -3.012549 -0.311879 -2.815171
v -3.425396 0.029362 -3.148509
v -2.979002 0.318067 -2.808824
v -2.766180 -0.000000 -5.326672
v -2.983259 0.157716 -5.160836
v -2.683264 0.255192 -5.160836
v -2.497852 0.000000 -5.160836
v -2.683264 -0.255192 -5.160836
v -2.983260 -0.157716 -5.160836
v -2.849095 0.255192 -4.892508
v -2.549099 0.157716 -4.892508
v -2.549099 -0.157716 -4.892508
v -2.849095 -0.255192 -4.892508
v -3.034507 0.000000 -4.892508
v -2.766180 0.000000 -4.726672
v -1.202045 -0.250000 -4.761055
v -0.543215 -1.000000 -6.186378
v -1.202045 0.250000 -4.761055
v -0.543215 1.000000 -6.186378
v 0.454784 -0.250000 -3.687578
v 1.250663 -0.792933 -5.302069
v 0.454784 0.250000 -3.687578
v 1.250663 0.792933 -5.302069
v -3.477900 0.500000 -6.715702
v 4.484694 0.100000 -2.815898
v -3.477900 -0.500000 -6.715702
v 4.484694 -0.100000 -2.815898
v -2.469739 0.750000 -6.801605
v -2.469738 -0.750000 -6.801606
v -0.941154 -0.662953 -5.379132
v -0.941154 0.662953 -5.379133
v -0.044215 0.625000 -4.936978
v -0.044215 -0.625000 -4.936978
v 1.111702 -2.500000 -6.151003
v 0.780086 -1.500000 -5.478298
v 1.111701 2.500000 -6.151003
v 0.780086 1.500000 -5.478299
v 3.845979 -0.175000 -3.070884
v 3.845978 0.175000 -3.070884
v 2.867679 0.550000 -4.058983
v 2.867678 -0.550000 -4.058983
v 1.250663 0.000000 -5.302068
v -1.339093 0.000000 -4.571888
v 0.454784 -0.000000 -3.687578
v -0.543215 0.000000 -6.186378
v -0.442154 -0.000000 -4.129733
v 4.180071 -0.000000 -3.027254
v 3.333291 -0.000000 -3.064950
v 4.484694 -0.000000 -2.815898
v 0.394765 0.000000 -5.800871
v -2.440853 0.000000 -6.774594
v -2.088647 -0.000000 -5.313023
v -3.587755 0.000000 -6.795291
v 5.273175 2.137931 -2.441193
v 4.760604 1.530232 -2.949340
v 6.037838 2.179823 -1.887205
v 5.668958 1.272035 -2.154453
v 5.379246 0.415000 -2.126472
v 4.965134 0.134303 -2.516961
v 5.273175 -2.137931 -2.441193
v 4.760604 -1.530233 -2.949339
v 6.037838 -2.179823 -1.887205
v 5.668959 -1.272036 -2.154453
v 5.379246 -0.415000 -2.126472
v 4.965134 -0.134303 -2.516961
v 2.107368 -0.570754 6.081982
v 1.949247 0.047668 6.196309
v 2.380072 -0.143764 5.677223
v 2.694443 -0.741514 5.865857
v 2.457897 -0.919501 6.501534
v 1.997345 -0.431760 6.705755
v 2.363195 0.205906 6.007882
v 2.823748 -0.281836 5.803658
v 2.871846 -0.761263 6.313106
v 2.441021 -0.569832 6.832191
v 2.126650 0.027918 6.643557
v 2.660311 -0.180536 6.397002
v 3.751876 -1.426554 5.121347
v 2.668449 0.633507 4.471231
v 1.183650 1.293267 6.260201
v 1.349416 -0.359035 8.015962
v 2.936665 -2.039977 7.312114
v 2.188524 -2.553998 9.134323
v 2.026786 -2.495714 9.505845
v 2.218077 -2.170466 9.274379
v 2.521662 -2.352170 9.008334
v 2.517989 -2.789720 9.075383
v 2.212140 -2.878431 9.382859
v 2.215623 -2.264544 9.563439
v 2.521472 -2.175833 9.255961
v 2.706825 -2.558549 9.132977
v 2.515534 -2.883798 9.364443
v 2.211950 -2.702095 9.630487
v 2.513678 -2.504999 9.471890
v 3.113907 -1.891987 8.468884
v 2.067648 -1.265765 9.385768
v 1.408377 -2.386693 10.183497
v 2.047181 -3.705687 9.759641
v 3.101256 -3.399944 8.699952
v 2.203346 1.053317 9.156502
v 2.289103 0.871112 9.512918
v 2.010760 1.213760 9.480159
v 2.132103 1.455559 9.129775
v 2.485444 1.262341 8.945991
v 2.582471 0.901137 9.182786
v 2.232193 1.125746 9.668927
v 2.135165 1.486950 9.432131
v 2.428533 1.516974 9.102000
v 2.706876 1.174327 9.134759
v 2.585533 0.932528 9.485143
v 2.486899 1.309977 9.431821
v 1.763583 2.263777 8.875797
v 1.345383 1.430459 10.083348
v 2.304658 0.249555 10.196256
v 3.315722 0.353031 9.058490
v 2.981322 1.597887 8.242401
v 2.664575 6.010978 10.473004
v 2.727830 5.797972 8.048325
v 3.292113 5.387525 11.514332
v 3.171859 5.270650 7.333302
v 2.923587 7.564215 8.593334
v 0.986562 5.790372 8.698630
v 4.287830 7.411291 10.835090
v 1.153628 4.541127 11.005466
v 1.676259 7.113357 10.862864
v 3.193915 5.542929 12.325835
v 3.023993 6.594863 7.635660
v 4.223241 7.183715 8.411754
v 1.739514 6.900351 8.438184
v 1.885446 5.552231 7.697553
v 1.242451 4.454039 8.573792
v 2.144896 7.677989 9.710291
v 1.006344 6.635353 9.772182
v 3.679946 7.853121 9.693956
v 0.699138 5.123428 9.855995
v 2.946775 7.588101 11.027956
v 1.104545 5.901067 11.128100
v 3.838834 6.665018 11.887866
v 2.303797 6.489903 11.904192
v 4.480328 5.261348 11.961585
v 3.341780 4.218716 12.023477
v 1.996609 4.977991 11.988011
v 4.696034 6.161614 11.465916
v 4.764978 6.444762 11.309232
v 4.653008 6.912713 10.979668
v 4.030224 4.602269 11.863969
v 4.510180 4.985577 11.810081
v 4.731691 5.690661 11.619040
v 4.661772 5.213278 11.759512
v 4.246196 7.162563 8.417369
v 4.247313 7.181015 8.451309
v 4.124613 7.444757 9.143191
v 3.959493 6.759953 8.067997
v 4.228905 7.131396 8.383010
v 4.654581 6.949611 10.944942
v 4.520195 7.299692 10.511722
v 3.829753 6.133204 7.655213
v 3.833204 6.138108 7.656995
v 3.583836 5.465038 7.449543
v 2.276417 4.710728 7.739654
v 2.949950 4.884554 7.484002
v 3.323867 5.108932 7.405308
v 4.521169 7.310823 10.485170
v 4.334067 7.483903 9.711204
v 4.145389 7.491865 9.354033
v 2.398608 4.057734 11.590805
v 2.872962 3.988518 11.720082
v 3.362048 4.023048 11.830167
v 3.604533 4.156227 11.859313
v 1.006072 4.627669 9.436062
v 0.998312 4.609909 9.525109
v 4.121800 7.480917 9.266690
v 1.034503 4.614970 9.311172
v 1.245399 4.431996 8.614496
v 1.261844 4.429626 8.579600
v 1.292301 4.442183 8.542646
v 1.666298 4.659945 8.192657
v 1.225537 4.282588 10.690821
v 1.212814 4.281178 10.665016
v 1.011083 4.440861 9.891843
v 1.626604 4.141264 11.144184
v 1.587721 4.141115 11.111659
v 2.101823 4.005963 11.454002
v 2.271348 4.707830 7.741899
vn -0.6732 0.7374 0.0556
vn -0.8645 0.2543 -0.4336
vn -0.0312 0.9917 -0.1248
vn 0.1742 0.6657 -0.7256
vn -0.3408 0.2100 -0.9164
vn -0.9191 -0.3788 -0.1088
vn -0.6095 0.4029 0.6828
vn 0.4291 0.8143 0.3908
vn 0.7615 0.2869 -0.5812
vn -0.0717 -0.4504 -0.8899
vn -0.7615 -0.2869 0.5812
vn 0.0717 0.4504 0.8899
vn 0.9191 0.3788 0.1088
vn 0.6095 -0.4029 -0.6828
vn -0.4291 -0.8143 -0.3908
vn -0.1742 -0.6657 0.7256
vn 0.3408 -0.2100 0.9164
vn 0.8645 -0.2543 0.4336
vn 0.6732 -0.7374 -0.0556
vn 0.0312 -0.9917 0.1248
vn -0.0655 0.0135 -0.9978
vn -0.4116 -0.5489 -0.7275
vn 0.6155 -0.0248 -0.7877
vn 0.6902 -0.6111 -0.3876
vn 0.0554 -0.9350 -0.3504
vn -0.9104 -0.3061 -0.2785
vn -0.3502 0.6041 -0.7159
vn 0.7516 0.5420 -0.3760
vn 0.8724 -0.4065 0.2713
vn -0.1547 -0.9306 0.3316
vn -0.8724 0.4065 -0.2713
vn 0.1547 0.9306 -0.3316
vn 0.9104 0.3061 0.2785
vn 0.3502 -0.6041 0.7159
vn -0.7516 -0.5420 0.3760
vn -0.6902 0.6111 0.3876
vn -0.0554 0.9350 0.3504
vn 0.4116 0.5489 0.7275
vn 0.0655 -0.0135 0.9978
vn -0.6155 0.0248 0.7877
vn -0.1876 0.5774 -0.7947
vn -0.6071 0.0000 -0.7947
vn 0.4911 0.3568 -0.7947
vn 0.4911 -0.3568 -0.7947
vn -0.1876 -0.5774 -0.7947
vn -0.9822 0.0000 -0.1876
vn -0.3035 0.9342 -0.1876
vn 0.7946 0.5774 -0.1876
vn 0.7946 -0.5774 -0.1876
vn -0.3035 -0.9342 -0.1876
vn -0.7946 0.5774 0.1876
vn 0.3035 0.9342 0.1876
vn 0.9822 0.0000 0.1876
vn 0.3035 -0.9342 0.1876
vn -0.7946 -0.5774 0.1876
vn -0.4911 0.3568 0.7947
vn 0.1876 0.5774 0.7947
vn 0.6071 0.0000 0.7947
vn 0.1876 -0.5774 0.7947
vn -0.4911 -0.3568 0.7947
vn -0.2124 0.9345 0.2855
vn -0.5616 0.4273 0.7085
vn 0.5035 0.0000 -0.8640
vn -0.2023 0.8516 0.4836
vn -0.5107 0.7458 0.4278
vn -0.1977 -0.9166 0.3474
vn -0.0753 -0.0388 -0.9964
vn 0.6038 -0.0515 -0.7955
vn -0.7025 0.0413 0.7105
vn 0.3801 0.0000 -0.9249
vn 0.4480 0.0768 -0.8907
vn -0.0753 0.0388 -0.9964
vn -0.0524 0.9154 0.3992
vn 0.0178 0.1534 -0.9880
vn -0.2363 -0.9006 0.3647
vn -0.3708 0.0000 0.9287
vn -0.0524 -0.9154 0.3992
vn -0.0386 -0.9527 0.3014
vn -0.0516 -0.9157 0.3986
vn -0.1231 -0.9359 0.3301
vn 0.3042 -0.0000 -0.9526
vn -0.4422 0.0000 0.8969
vn 0.5867 0.0000 -0.8098
vn 0.0178 -0.1534 -0.9880
vn 0.5289 -0.1794 -0.8295
vn -0.2363 0.9006 0.3647
vn -0.1771 -0.5465 0.8186
vn -0.2023 -0.8516 0.4836
vn -0.2114 0.0000 0.9774
vn 0.6038 0.0515 -0.7955
vn -0.4928 0.4228 0.7605
vn -0.5107 -0.7458 0.4278
vn 0.4480 -0.0768 -0.8907
vn 0.6133 -0.0000 -0.7898
vn -0.1977 0.9166 0.3474
vn -0.3413 0.8417 0.4183
vn -0.5165 0.6784 0.5224
vn 0.5890 0.0991 -0.8020
vn 0.5701 0.0000 -0.8216
vn -0.0386 0.9527 0.3014
vn -0.1231 0.9359 0.3301
vn -0.5432 0.5852 0.6021
vn 0.2960 -0.0230 -0.9549
vn 0.5890 -0.0991 -0.8020
vn -0.0751 0.9558 0.2844
vn -0.0516 0.9157 0.3986
vn 0.5289 0.1794 -0.8295
vn -0.4928 -0.4228 0.7605
vn -0.1485 0.4646 0.8730
vn -0.1771 0.5465 0.8186
vn -0.3413 -0.8417 0.4183
vn -0.5165 -0.6784 0.5224
vn 0.3507 0.1538 -0.9238
vn -0.1485 -0.4646 0.8730
vn -0.5432 -0.5852 0.6021
vn 0.2960 0.0230 -0.9549
vn 0.6668 -0.0588 -0.7429
vn -0.3252 -0.6775 0.6597
vn 0.6034 0.2289 -0.7639
vn 0.7196 0.1071 -0.6861
vn 0.3507 -0.1538 -0.9238
vn 0.6668 0.0588 -0.7429
vn 0.6034 -0.2289 -0.7639
vn 0.7196 -0.1071 -0.6861
vn -0.0751 -0.9558 0.2844
vn -0.3252 0.6775 0.6597
vn -0.2124 -0.9345 0.2855
vn -0.5616 -0.4273 0.7085
vn -0.7025 -0.0413 0.7105
vn -0.7820 -0.0858 -0.6174
vn -0.9669 -0.2250 -0.1204
vn -0.4219 -0.4671 -0.7770
vn -0.3843 -0.8419 -0.3787
vn -0.7211 -0.6923 0.0271
vn -0.8765 0.1865 -0.4438
vn -0.3536 -0.1702 -0.9198
vn -0.0986 -0.8256 -0.5556
vn -0.4638 -0.8739 0.1454
vn -0.9446 -0.2484 0.2145
vn 0.4876 0.7766 0.3989
vn 0.7429 0.6632 0.0914
vn 0.9291 0.3091 0.2031
vn 0.7890 0.2036 0.5797
vn 0.5161 0.4926 0.7007
vn -0.8065 -0.5110 0.2974
vn -0.8829 0.2975 0.3633
vn -0.9804 0.1083 -0.1646
vn -0.5107 0.5776 -0.6369
vn -0.5559 0.0441 -0.8301
vn 0.2140 -0.1898 -0.9582
vn -0.1197 -0.6150 -0.7794
vn 0.2897 -0.9442 -0.1566
vn -0.2746 -0.9580 -0.0826
vn -0.3882 -0.6430 0.6602
vn 0.6620 0.6207 0.4201
vn 0.7526 0.5804 0.3110
vn 0.8187 0.4548 0.3507
vn 0.7690 0.4173 0.4843
vn 0.6721 0.5199 0.5272
vn -0.8812 0.2206 -0.4182
vn -0.8857 -0.3212 -0.3352
vn -0.5024 0.3305 -0.7990
vn -0.2728 -0.1435 -0.9513
vn -0.5097 -0.5463 -0.6646
vn -0.9833 0.1478 -0.1060
vn -0.5450 0.5929 -0.5928
vn -0.0582 0.1124 -0.9919
vn -0.1956 -0.6296 -0.7519
vn -0.7674 -0.6078 -0.2043
vn 0.3897 0.1363 0.9108
vn 0.5692 0.4415 0.6936
vn 0.8541 0.2710 0.4439
vn 0.8507 -0.1396 0.5068
vn 0.5636 -0.2229 0.7954
vn -0.5562 -0.7342 -0.3894
vn -0.7923 -0.4973 0.3535
vn -0.9859 -0.1566 -0.0593
vn -0.7831 0.5933 0.1864
vn -0.7578 0.5312 -0.3788
vn -0.0208 0.8144 -0.5799
vn -0.1872 0.3787 -0.9064
vn 0.4412 -0.1395 -0.8865
vn -0.0625 -0.4033 -0.9129
vn -0.0356 -0.9502 -0.3096
vn 0.5938 0.1170 0.7961
vn 0.6575 0.2253 0.7190
vn 0.7586 0.1648 0.6304
vn 0.7573 0.0191 0.6527
vn 0.6555 -0.0104 0.7551
vn -0.7620 -0.6323 -0.1399
vn -0.3244 -0.8716 -0.3675
vn -0.8821 -0.1850 -0.4332
vn -0.5188 -0.1478 -0.8420
vn -0.1741 -0.5722 -0.8014
vn -0.5865 -0.8050 0.0895
vn -0.9821 -0.1498 -0.1139
vn -0.6350 0.1562 -0.7566
vn -0.0248 -0.3100 -0.9504
vn 0.0051 -0.9040 -0.4275
vn 0.5527 0.2564 0.7930
vn 0.2915 0.5780 0.7622
vn 0.4054 0.8049 0.4334
vn 0.7369 0.6236 0.2610
vn 0.8280 0.2846 0.4832
vn 0.0895 -0.7358 -0.6713
vn 0.2108 -0.9725 0.0988
vn -0.3407 -0.9394 -0.0383
vn -0.6699 -0.4910 0.5569
vn -0.9146 -0.4011 0.0509
vn -0.9118 0.4094 -0.0333
vn -0.8391 0.1353 -0.5269
vn -0.1805 0.4842 -0.8561
vn -0.2185 -0.0716 -0.9732
vn 0.5132 -0.3699 -0.7745
vn 0.5933 0.4505 0.6671
vn 0.5006 0.5646 0.6562
vn 0.5411 0.6452 0.5395
vn 0.6587 0.5808 0.4783
vn 0.6910 0.4605 0.5571
vn 0.5436 -0.5342 -0.6474
vn 0.2287 -0.2084 -0.9509
vn 0.4419 -0.3445 -0.8283
vn 0.7018 -0.6075 0.3720
vn 0.5602 -0.4331 0.7061
vn 0.4139 -0.4035 0.8160
vn 0.1588 0.2366 -0.9585
vn -0.2788 0.6602 -0.6975
vn 0.3205 -0.1172 -0.9400
vn 0.0335 -0.3801 -0.9244
vn -0.3056 -0.1887 -0.9333
vn -0.4157 0.8289 -0.3742
vn -0.9360 -0.1495 -0.3186
vn -0.1134 0.9774 -0.1786
vn -0.9728 0.1904 -0.1319
vn 0.1896 0.7611 0.6203
vn -0.5749 -0.4409 0.6893
vn -0.6300 0.4375 0.6416
vn -0.3205 0.1172 0.9400
vn -0.5914 0.1639 0.7895
vn -0.7366 -0.0871 0.6707
vn -0.1588 -0.2366 0.9585
vn -0.2951 -0.4844 0.8236
vn 0.2281 -0.1925 0.9544
vn 0.3056 0.1887 0.9333
vn 0.5558 0.2948 0.7773
vn -0.0335 0.3801 0.9244
vn -0.0655 0.6455 0.7609
vn -0.3430 0.7003 0.6260
vn -0.8322 0.4602 0.3095
vn -0.9618 0.2055 0.1809
vn -0.9387 -0.0644 0.3385
vn 0.1648 0.9462 0.2786
vn -0.1109 0.9847 0.1347
vn -0.3678 0.8854 0.2842
vn -0.9020 -0.4042 0.1518
vn -0.8944 -0.4172 -0.1612
vn -0.7135 -0.6365 -0.2930
vn 0.2104 0.9004 -0.3809
vn -0.6701 0.7370 0.0886
vn -0.6648 0.7127 -0.2238
vn -0.8107 0.4672 -0.3528
vn -0.7512 -0.0827 -0.6549
vn -0.5558 -0.2948 -0.7773
vn -0.6738 0.2984 -0.6760
vn -0.4139 0.4035 -0.8160
vn -0.2281 0.1925 -0.9544
vn 0.1082 0.7043 -0.7016
vn 0.4463 -0.6233 -0.6421
vn -0.1082 -0.7043 0.7016
vn 0.2557 -0.5150 -0.8182
vn 0.4824 0.8436 -0.2360
vn 0.6771 0.6369 -0.3686
vn 0.1314 -0.2975 -0.9456
vn 0.7512 0.0827 0.6549
vn 0.6648 -0.7127 0.2238
vn 0.6701 -0.7370 -0.0886
vn 0.6738 -0.2984 0.6760
vn 0.4886 0.8692 0.0763
vn -0.5287 -0.5696 -0.6293
vn 0.2788 -0.6602 0.6975
vn 0.5749 0.4409 -0.6893
vn 0.7094 -0.6304 -0.3153
vn 0.5473 -0.7788 -0.3065
vn 0.2951 0.4844 -0.8236
vn 0.5658 -0.7321 0.3794
vn 0.7135 0.6365 0.2930
vn 0.5286 0.5697 0.6293
vn -0.6771 -0.6369 0.3686
vn 0.4242 -0.5577 0.7135
vn 0.2288 -0.2084 -0.9509
vn 0.7019 -0.6074 0.3720
vn 0.5603 -0.4331 0.7061
vn 0.1588 0.2364 -0.9586
vn -0.3055 -0.1886 -0.9333
vn 0.2557 -0.5150 -0.8181
vn 0.4824 0.8435 -0.2360
vn 0.7094 -0.6303 -0.3153
vn 0.5657 -0.7321 0.3794
vn 0.4242 -0.5576 0.7135
s off
f 1//1 2//1 3//1
f 2//2 1//2 6//2
f 1//3 3//3 4//3
f 1//4 4//4 5//4
f 1//5 5//5 6//5
f 2//6 6//6 11//6
f 3//7 2//7 7//7
f 4//8 3//8 8//8
f 5//9 4//9 9//9
f 6//10 5//10 10//10
f 2//11 11//11 7//11
f 3//12 7//12 8//12
f 4//13 8//13 9//13
f 5//14 9//14 10//14
f 6//15 10//15 11//15
f 7//16 11//16 12//16
f 8//17 7//17 12//17
f 9//18 8//18 12//18
f 10//19 9//19 12//19
f 11//20 10//20 12//20
f 13//21 14//21 15//21
f 14//22 13//22 18//22
f 13//23 15//23 16//23
f 13//24 16//24 17//24
f 13//25 17//25 18//25
f 14//26 18//26 23//26
f 15//27 14//27 19//27
f 16//28 15//28 20//28
f 17//29 16//29 21//29
f 18//30 17//30 22//30
f 14//31 23//31 19//31
f 15//32 19//32 20//32
f 16//33 20//33 21//33
f 17//34 21//34 22//34
f 18//35 22//35 23//35
f 19//36 23//36 24//36
f 20//37 19//37 24//37
f 21//38 20//38 24//38
f 22//39 21//39 24//39
f 23//40 22//40 24//40
f 25//41 26//41 27//41
f 26//42 25//42 30//42
f 25//43 27//43 28//43
f 25//44 28//44 29//44
f 25//45 29//45 30//45
f 26//46 30//46 35//46
f 27//47 26//47 31//47
f 28//48 27//48 32//48
f 29//49 28//49 33//49
f 30//50 29//50 34//50
f 26//51 35//51 31//51
f 27//52 31//52 32//52
f 28//53 32//53 33//53
f 29//54 33//54 34//54
f 30//55 34//55 35//55
f 31//56 35//56 36//56
f 32//57 31//57 36//57
f 33//58 32//58 36//58
f 34//59 33//59 36//59
f 35//60 34//60 36//60
f 52//61 40//61 49//61
f 73//62 39//62 45//62
f 42//63 71//63 63//63
f 52//64 39//64 53//64
f 58//65 40//65 53//65
f 47//66 50//66 37//66
f 72//67 45//67 49//67
f 68//68 44//68 61//68
f 45//69 74//69 73//69
f 40//70 71//70 66//70
f 44//71 71//71 40//71
f 72//72 50//72 47//72
f 43//73 60//73 61//73
f 74//74 45//74 72//74
f 41//75 37//75 54//75
f 70//76 46//76 60//76
f 41//77 62//77 59//77
f 42//78 54//78 38//78
f 59//79 62//79 48//79
f 38//80 54//80 51//80
f 38//81 50//81 66//81
f 43//82 67//82 65//82
f 81//83 84//83 83//83
f 74//84 72//84 47//84
f 80//85 46//85 76//85
f 43//86 53//86 39//86
f 69//87 59//87 70//87
f 51//88 54//88 37//88
f 69//89 43//89 65//89
f 68//90 62//90 42//90
f 39//91 67//91 43//91
f 56//92 54//92 38//92
f 70//76 59//76 48//76
f 42//93 38//93 71//93
f 38//70 66//70 71//70
f 44//94 68//94 63//94
f 45//95 39//95 49//95
f 39//96 52//96 49//96
f 73//97 64//97 39//97
f 62//98 68//98 48//98
f 48//99 68//99 70//99
f 44//100 40//100 53//100
f 40//101 52//101 53//101
f 58//102 57//102 40//102
f 42//94 63//94 68//94
f 69//89 65//89 41//89
f 40//81 66//81 49//81
f 66//103 72//103 49//103
f 61//104 46//104 68//104
f 46//99 70//99 68//99
f 44//63 63//63 71//63
f 61//105 44//105 43//105
f 60//106 46//106 61//106
f 86//107 82//107 48//107
f 37//108 41//108 67//108
f 43//109 69//109 60//109
f 69//110 70//110 60//110
f 37//111 50//111 51//111
f 73//112 37//112 64//112
f 48//113 82//113 59//113
f 41//114 59//114 69//114
f 56//115 38//115 55//115
f 66//116 50//116 72//116
f 82//117 84//117 81//117
f 41//78 54//78 42//78
f 37//118 67//118 64//118
f 84//119 82//119 85//119
f 85//120 82//120 86//120
f 46//121 60//121 76//121
f 76//122 75//122 78//122
f 75//83 77//83 78//83
f 78//123 79//123 76//123
f 79//124 80//124 76//124
f 43//100 44//100 53//100
f 41//82 65//82 67//82
f 62//125 41//125 42//125
f 39//126 64//126 67//126
f 51//127 50//127 38//127
f 73//128 47//128 37//128
f 47//129 73//129 74//129
f 87//130 88//130 89//130
f 88//131 87//131 92//131
f 87//132 89//132 90//132
f 87//133 90//133 91//133
f 87//134 91//134 92//134
f 92//135 102//135 97//135
f 88//136 101//136 93//136
f 89//137 100//137 94//137
f 90//138 99//138 95//138
f 91//139 103//139 96//139
f 93//140 97//140 98//140
f 94//141 93//141 98//141
f 95//142 94//142 98//142
f 96//143 95//143 98//143
f 97//144 96//144 98//144
f 101//145 88//145 97//145
f 88//146 92//146 97//146
f 100//147 89//147 93//147
f 89//148 88//148 93//148
f 99//149 90//149 94//149
f 90//150 89//150 94//150
f 103//151 91//151 95//151
f 91//152 90//152 95//152
f 102//153 92//153 96//153
f 92//154 91//154 96//154
f 93//155 101//155 97//155
f 94//156 100//156 93//156
f 95//157 99//157 94//157
f 96//158 103//158 95//158
f 97//159 102//159 96//159
f 104//160 105//160 106//160
f 105//161 104//161 109//161
f 104//162 106//162 107//162
f 104//163 107//163 108//163
f 104//164 108//164 109//164
f 109//165 119//165 114//165
f 105//166 118//166 110//166
f 106//167 117//167 111//167
f 107//168 116//168 112//168
f 108//169 120//169 113//169
f 110//170 114//170 115//170
f 111//171 110//171 115//171
f 112//172 111//172 115//172
f 113//173 112//173 115//173
f 114//174 113//174 115//174
f 118//175 105//175 114//175
f 105//176 109//176 114//176
f 117//177 106//177 110//177
f 106//178 105//178 110//178
f 116//179 107//179 111//179
f 107//180 106//180 111//180
f 120//181 108//181 112//181
f 108//182 107//182 112//182
f 119//183 109//183 113//183
f 109//184 108//184 113//184
f 110//185 118//185 114//185
f 111//186 117//186 110//186
f 112//187 116//187 111//187
f 113//188 120//188 112//188
f 114//189 119//189 113//189
f 121//190 122//190 123//190
f 122//191 121//191 126//191
f 121//192 123//192 124//192
f 121//193 124//193 125//193
f 121//194 125//194 126//194
f 126//195 136//195 131//195
f 122//196 135//196 127//196
f 123//197 134//197 128//197
f 124//198 133//198 129//198
f 125//199 137//199 130//199
f 127//200 131//200 132//200
f 128//201 127//201 132//201
f 129//202 128//202 132//202
f 130//203 129//203 132//203
f 131//204 130//204 132//204
f 135//205 122//205 131//205
f 122//206 126//206 131//206
f 134//207 123//207 127//207
f 123//208 122//208 127//208
f 133//209 124//209 128//209
f 124//210 123//210 128//210
f 137//211 125//211 129//211
f 125//212 124//212 129//212
f 136//213 126//213 130//213
f 126//214 125//214 130//214
f 127//215 135//215 131//215
f 128//216 134//216 127//216
f 129//217 133//217 128//217
f 130//218 137//218 129//218
f 131//219 136//219 130//219
f 199//220 202//220 203//220
f 189//221 188//221 140//221
f 187//222 202//222 140//222
f 198//223 195//223 197//223
f 139//224 205//224 181//224
f 183//225 180//225 139//225
f 148//226 178//226 180//226
f 142//227 148//227 150//227
f 141//228 180//228 183//228
f 141//229 183//229 182//229
f 182//230 181//230 151//230
f 142//231 150//231 153//231
f 143//232 152//232 156//232
f 142//233 153//233 155//233
f 143//234 156//234 154//234
f 144//235 157//235 159//235
f 202//236 204//236 163//236
f 146//237 158//237 160//237
f 160//238 163//238 147//238
f 160//239 158//239 163//239
f 158//240 145//240 163//240
f 163//241 162//241 147//241
f 188//242 162//242 163//242
f 162//243 161//243 147//243
f 167//225 168//225 161//225
f 161//244 159//244 147//244
f 169//245 164//245 159//245
f 159//246 160//246 147//246
f 159//247 157//247 160//247
f 157//248 146//248 160//248
f 154//249 158//249 146//249
f 154//250 156//250 158//250
f 156//251 145//251 158//251
f 155//252 157//252 144//252
f 155//253 153//253 157//253
f 153//254 146//254 157//254
f 156//255 200//255 145//255
f 156//256 191//256 192//256
f 152//257 196//257 195//257
f 149//258 142//258 155//258
f 153//259 154//259 146//259
f 153//260 150//260 154//260
f 150//261 143//261 154//261
f 151//262 152//262 143//262
f 151//263 198//263 152//263
f 150//264 151//264 143//264
f 150//265 148//265 151//265
f 148//266 141//266 151//266
f 148//267 142//267 149//267
f 138//268 177//268 166//268
f 188//269 189//269 162//269
f 164//270 166//270 165//270
f 155//271 193//271 173//271
f 172//272 171//272 149//272
f 170//273 168//273 140//273
f 170//274 169//274 161//274
f 191//275 194//275 139//275
f 138//276 191//276 193//276
f 168//277 170//277 161//277
f 184//278 155//278 144//278
f 197//279 196//279 152//279
f 189//280 190//280 162//280
f 171//281 175//281 149//281
f 138//282 200//282 201//282
f 138//283 185//283 184//283
f 174//284 148//284 149//284
f 175//285 171//285 172//285
f 177//286 144//286 176//286
f 166//287 144//287 159//287
f 199//288 145//288 200//288
f 139//289 179//289 174//289
f 199//220 138//220 202//220
f 138//220 140//220 202//220
f 187//290 140//290 188//290
f 140//221 167//221 190//221
f 189//290 140//290 190//290
f 187//222 204//222 202//222
f 198//223 139//223 194//223
f 194//223 195//223 198//223
f 195//291 196//291 197//291
f 139//292 198//292 205//292
f 178//225 139//225 180//225
f 139//225 181//225 182//225
f 183//225 139//225 182//225
f 180//226 141//226 148//226
f 148//293 179//293 178//293
f 151//230 141//230 182//230
f 181//294 205//294 151//294
f 163//236 145//236 202//236
f 145//236 203//236 202//236
f 163//242 204//242 187//242
f 187//242 188//242 163//242
f 161//225 162//225 167//225
f 162//225 190//225 167//225
f 159//245 161//245 169//245
f 164//245 165//245 159//245
f 156//255 201//255 200//255
f 156//256 152//256 194//256
f 152//256 195//256 194//256
f 192//256 201//256 156//256
f 156//256 194//256 191//256
f 151//263 205//263 198//263
f 198//263 197//263 152//263
f 176//268 166//268 177//268
f 166//268 140//268 138//268
f 164//295 140//295 166//295
f 155//271 185//271 186//271
f 155//271 186//271 193//271
f 172//296 149//296 173//296
f 149//271 155//271 173//271
f 168//273 167//273 140//273
f 140//273 164//273 169//273
f 169//273 170//273 140//273
f 173//275 193//275 139//275
f 193//275 191//275 139//275
f 193//276 186//276 138//276
f 138//276 192//276 191//276
f 184//278 185//278 155//278
f 201//282 192//282 138//282
f 138//297 199//297 200//297
f 184//283 177//283 138//283
f 138//283 186//283 185//283
f 149//284 175//284 174//284
f 174//284 179//284 148//284
f 172//298 173//298 174//298
f 173//298 139//298 174//298
f 174//298 175//298 172//298
f 177//286 184//286 144//286
f 159//287 165//287 166//287
f 166//287 176//287 144//287
f 199//288 203//288 145//288
f 139//299 178//299 179//299
