# Blender v2.80 (sub 75) OBJ File: ''
# www.blender.org
v 2.107368 3.415010 6.081982
v 1.949247 4.033432 6.196309
v 2.380072 3.842000 5.677223
v 2.694442 3.244251 5.865857
v 2.457897 3.066263 6.501533
v 1.997345 3.554004 6.705756
v 2.363195 4.191669 6.007882
v 2.823747 3.703929 5.803658
v 2.871845 3.224501 6.313105
v 2.441020 3.415932 6.832191
v 2.126650 4.013682 6.643557
v 2.660311 3.805228 6.397001
v 3.751875 2.559210 5.121347
v 2.668449 4.619271 4.471231
v 1.183650 5.279031 6.260201
v 1.349416 3.626729 8.015961
v 2.936665 1.945787 7.312114
vn -0.7820 -0.0858 -0.6174
vn -0.9669 -0.2250 -0.1204
vn -0.4219 -0.4671 -0.7770
vn -0.3843 -0.8419 -0.3788
vn -0.7211 -0.6923 0.0271
vn -0.8765 0.1865 -0.4438
vn -0.3536 -0.1702 -0.9198
vn -0.0986 -0.8256 -0.5556
vn -0.4638 -0.8739 0.1454
vn -0.9446 -0.2484 0.2145
vn 0.4876 0.7766 0.3989
vn 0.7429 0.6632 0.0914
vn 0.9291 0.3091 0.2031
vn 0.7890 0.2036 0.5797
vn 0.5161 0.4926 0.7007
vn -0.8065 -0.5110 0.2973
vn -0.8829 0.2975 0.3633
vn -0.9804 0.1083 -0.1646
vn -0.5107 0.5776 -0.6369
vn -0.5559 0.0441 -0.8301
vn 0.2140 -0.1898 -0.9582
vn -0.1197 -0.6150 -0.7794
vn 0.2897 -0.9442 -0.1566
vn -0.2746 -0.9580 -0.0826
vn -0.3882 -0.6430 0.6602
vn 0.6620 0.6207 0.4201
vn 0.7526 0.5804 0.3110
vn 0.8187 0.4548 0.3507
vn 0.7690 0.4173 0.4843
vn 0.6721 0.5199 0.5272
s off
f 1//1 2//1 3//1
f 2//2 1//2 6//2
f 1//3 3//3 4//3
f 1//4 4//4 5//4
f 1//5 5//5 6//5
f 6//6 16//6 11//6
f 2//7 15//7 7//7
f 3//8 14//8 8//8
f 4//9 13//9 9//9
f 5//10 17//10 10//10
f 7//11 11//11 12//11
f 8//12 7//12 12//12
f 9//13 8//13 12//13
f 10//14 9//14 12//14
f 11//15 10//15 12//15
f 15//16 2//16 11//16
f 2//17 6//17 11//17
f 14//18 3//18 7//18
f 3//19 2//19 7//19
f 13//20 4//20 8//20
f 4//21 3//21 8//21
f 17//22 5//22 9//22
f 5//23 4//23 9//23
f 16//24 6//24 10//24
f 6//25 5//25 10//25
f 7//26 15//26 11//26
f 8//27 14//27 7//27
f 9//28 13//28 8//28
f 10//29 17//29 9//29
f 11//30 16//30 10//30
v 2.188525 1.431766 9.134323
v 2.026786 1.490049 9.505846
v 2.218078 1.815297 9.274379
v 2.521662 1.633594 9.008334
v 2.517989 1.196044 9.075383
v 2.212140 1.107333 9.382860
v 2.215623 1.721219 9.563439
v 2.521472 1.809930 9.255962
v 2.706825 1.427214 9.132977
v 2.515534 1.101966 9.364444
v 2.211950 1.283669 9.630488
v 2.513678 1.480764 9.471891
v 3.113907 2.093777 8.468884
v 2.067648 2.719999 9.385768
v 1.408377 1.599071 10.183497
v 2.047181 0.280077 9.759641
v 3.101256 0.585820 8.699952
vn -0.8812 0.2206 -0.4182
vn -0.8857 -0.3212 -0.3352
vn -0.5024 0.3305 -0.7990
vn -0.2728 -0.1435 -0.9513
vn -0.5097 -0.5463 -0.6646
vn -0.9833 0.1478 -0.1060
vn -0.5450 0.5929 -0.5928
vn -0.0582 0.1125 -0.9920
vn -0.1956 -0.6296 -0.7519
vn -0.7674 -0.6078 -0.2043
vn 0.3897 0.1363 0.9108
vn 0.5692 0.4415 0.6936
vn 0.8541 0.2710 0.4439
vn 0.8507 -0.1396 0.5068
vn 0.5637 -0.2229 0.7954
vn -0.5562 -0.7342 -0.3894
vn -0.7923 -0.4973 0.3535
vn -0.9859 -0.1566 -0.0593
vn -0.7831 0.5933 0.1864
vn -0.7578 0.5312 -0.3788
vn -0.0208 0.8144 -0.5799
vn -0.1872 0.3787 -0.9064
vn 0.4412 -0.1395 -0.8865
vn -0.0626 -0.4033 -0.9129
vn -0.0356 -0.9502 -0.3096
vn 0.5938 0.1170 0.7961
vn 0.6575 0.2253 0.7190
vn 0.7586 0.1648 0.6304
vn 0.7573 0.0191 0.6527
vn 0.6555 -0.0104 0.7551
s off
f 18//31 19//31 20//31
f 19//32 18//32 23//32
f 18//33 20//33 21//33
f 18//34 21//34 22//34
f 18//35 22//35 23//35
f 23//36 33//36 28//36
f 19//37 32//37 24//37
f 20//38 31//38 25//38
f 21//39 30//39 26//39
f 22//40 34//40 27//40
f 24//41 28//41 29//41
f 25//42 24//42 29//42
f 26//43 25//43 29//43
f 27//44 26//44 29//44
f 28//45 27//45 29//45
f 32//46 19//46 28//46
f 19//47 23//47 28//47
f 31//48 20//48 24//48
f 20//49 19//49 24//49
f 30//50 21//50 25//50
f 21//51 20//51 25//51
f 34//52 22//52 26//52
f 22//53 21//53 26//53
f 33//54 23//54 27//54
f 23//55 22//55 27//55
f 24//56 32//56 28//56
f 25//57 31//57 24//57
f 26//58 30//58 25//58
f 27//59 34//59 26//59
f 28//60 33//60 27//60
v 2.203346 5.039081 9.156501
v 2.289103 4.856876 9.512918
v 2.010760 5.199524 9.480158
v 2.132103 5.441322 9.129775
v 2.485444 5.248105 8.945990
v 2.582471 4.886900 9.182786
v 2.232192 5.111510 9.668927
v 2.135165 5.472714 9.432131
v 2.428533 5.502738 9.101999
v 2.706876 5.160090 9.134759
v 2.585532 4.918293 9.485142
v 2.486899 5.295741 9.431820
v 1.763583 6.249540 8.875797
v 1.345383 5.416223 10.083347
v 2.304658 4.235319 10.196257
v 3.315722 4.338795 9.058490
v 2.981322 5.583651 8.242401
vn -0.7620 -0.6323 -0.1399
vn -0.3244 -0.8716 -0.3675
vn -0.8821 -0.1850 -0.4332
vn -0.5188 -0.1478 -0.8420
vn -0.1741 -0.5722 -0.8014
vn -0.5865 -0.8050 0.0895
vn -0.9821 -0.1498 -0.1139
vn -0.6350 0.1562 -0.7566
vn -0.0248 -0.3100 -0.9504
vn 0.0051 -0.9040 -0.4275
vn 0.5527 0.2564 0.7930
vn 0.2915 0.5780 0.7622
vn 0.4054 0.8049 0.4334
vn 0.7369 0.6236 0.2610
vn 0.8280 0.2846 0.4832
vn 0.0895 -0.7358 -0.6713
vn 0.2108 -0.9725 0.0988
vn -0.3407 -0.9394 -0.0383
vn -0.6699 -0.4910 0.5569
vn -0.9146 -0.4011 0.0509
vn -0.9118 0.4094 -0.0333
vn -0.8391 0.1353 -0.5269
vn -0.1805 0.4842 -0.8561
vn -0.2185 -0.0716 -0.9732
vn 0.5132 -0.3699 -0.7745
vn 0.5933 0.4505 0.6671
vn 0.5006 0.5646 0.6562
vn 0.5411 0.6452 0.5395
vn 0.6587 0.5808 0.4783
vn 0.6910 0.4605 0.5571
s off
f 35//61 36//61 37//61
f 36//62 35//62 40//62
f 35//63 37//63 38//63
f 35//64 38//64 39//64
f 35//65 39//65 40//65
f 40//66 50//66 45//66
f 36//67 49//67 41//67
f 37//68 48//68 42//68
f 38//69 47//69 43//69
f 39//70 51//70 44//70
f 41//71 45//71 46//71
f 42//72 41//72 46//72
f 43//73 42//73 46//73
f 44//74 43//74 46//74
f 45//75 44//75 46//75
f 49//76 36//76 45//76
f 36//77 40//77 45//77
f 48//78 37//78 41//78
f 37//79 36//79 41//79
f 47//80 38//80 42//80
f 38//81 37//81 42//81
f 51//82 39//82 43//82
f 39//83 38//83 43//83
f 50//84 40//84 44//84
f 40//85 39//85 44//85
f 41//86 49//86 45//86
f 42//87 48//87 41//87
f 43//88 47//88 42//88
f 44//89 51//89 43//89
f 45//90 50//90 44//90
v 2.664576 9.996742 10.473003
v 2.727830 9.783736 8.048324
v 3.292113 9.373289 11.514331
v 3.171859 9.256414 7.333302
v 2.923588 11.549979 8.593332
v 0.986562 9.776135 8.698630
v 4.287831 11.397055 10.835089
v 1.153629 8.526890 11.005466
v 1.676259 11.099120 10.862864
v 3.193915 9.528692 12.325834
v 3.023993 10.580626 7.635659
v 4.223242 11.169478 8.411753
v 1.739513 10.886114 8.438185
v 1.885446 9.537995 7.697552
v 1.242452 8.439802 8.573791
v 2.144896 11.663753 9.710289
v 1.006345 10.621118 9.772182
v 3.679947 11.838885 9.693956
v 0.699138 9.109192 9.855995
v 2.946776 11.573865 11.027955
v 1.104545 9.886831 11.128100
v 3.838834 10.650782 11.887867
v 2.303797 10.475667 11.904192
v 4.480328 9.247111 11.961584
v 3.341781 8.204480 12.023477
v 1.996610 8.963754 11.988011
v 4.696034 10.147378 11.465915
v 4.764978 10.430526 11.309231
v 4.653009 10.898476 10.979667
v 4.030224 8.588032 11.863968
v 4.510180 8.971341 11.810081
v 4.731692 9.676425 11.619039
v 4.661772 9.199041 11.759512
v 4.246195 11.148327 8.417368
v 4.247314 11.166780 8.451309
v 4.124612 11.430520 9.143191
v 3.959493 10.745716 8.067996
v 4.228905 11.117159 8.383010
v 4.654581 10.935375 10.944942
v 4.520195 11.285456 10.511721
v 3.829753 10.118968 7.655211
v 3.833204 10.123873 7.656994
v 3.583836 9.450802 7.449542
v 2.276417 8.696491 7.739652
v 2.949951 8.870317 7.484001
v 3.323867 9.094696 7.405307
v 4.521169 11.296587 10.485170
v 4.334067 11.469666 9.711203
v 4.145389 11.477629 9.354032
v 2.398608 8.043496 11.590804
v 2.872962 7.974282 11.720080
v 3.362048 8.008812 11.830166
v 3.604534 8.141990 11.859312
v 1.006073 8.613433 9.436061
v 0.998312 8.595674 9.525108
v 4.121800 11.466680 9.266688
v 1.034503 8.600734 9.311172
v 1.245399 8.417759 8.614495
v 1.261845 8.415390 8.579599
v 1.292301 8.427947 8.542645
v 1.666298 8.645709 8.192656
v 1.225537 8.268353 10.690820
v 1.212815 8.266942 10.665014
v 1.011084 8.426624 9.891842
v 1.626604 8.127028 11.144184
v 1.587721 8.126880 11.111658
v 2.101823 7.991726 11.454002
v 2.271348 8.693594 7.741898
vn 0.5436 -0.5342 -0.6474
vn 0.2287 -0.2084 -0.9509
vn 0.4419 -0.3445 -0.8283
vn 0.7018 -0.6075 0.3720
vn 0.5602 -0.4332 0.7060
vn 0.4139 -0.4035 0.8160
vn 0.1588 0.2366 -0.9585
vn -0.2788 0.6602 -0.6975
vn 0.3205 -0.1172 -0.9400
vn 0.0335 -0.3801 -0.9244
vn -0.3056 -0.1887 -0.9333
vn -0.4157 0.8289 -0.3742
vn -0.9360 -0.1495 -0.3186
vn -0.1134 0.9774 -0.1786
vn -0.9728 0.1904 -0.1319
vn 0.1896 0.7611 0.6203
vn -0.5749 -0.4409 0.6893
vn -0.6300 0.4375 0.6416
vn -0.3205 0.1172 0.9400
vn -0.5914 0.1639 0.7895
vn -0.7366 -0.0871 0.6707
vn -0.1588 -0.2366 0.9585
vn -0.2951 -0.4844 0.8236
vn 0.2281 -0.1925 0.9544
vn 0.3056 0.1887 0.9333
vn 0.5558 0.2948 0.7773
vn -0.0335 0.3801 0.9244
vn -0.0655 0.6455 0.7609
vn -0.3430 0.7003 0.6260
vn -0.8322 0.4602 0.3095
vn -0.9618 0.2055 0.1809
vn -0.9387 -0.0644 0.3385
vn 0.1648 0.9462 0.2786
vn -0.1109 0.9847 0.1347
vn -0.3678 0.8854 0.2842
vn -0.9020 -0.4042 0.1518
vn -0.8944 -0.4172 -0.1612
vn -0.7135 -0.6365 -0.2930
vn 0.2104 0.9004 -0.3809
vn -0.6701 0.7370 0.0886
vn -0.6648 0.7127 -0.2238
vn -0.8107 0.4672 -0.3528
vn -0.7512 -0.0827 -0.6549
vn -0.5558 -0.2948 -0.7773
vn -0.6738 0.2984 -0.6760
vn -0.4139 0.4035 -0.8160
vn -0.2281 0.1925 -0.9544
vn 0.1082 0.7043 -0.7016
vn 0.4463 -0.6233 -0.6421
vn -0.1082 -0.7043 0.7016
vn 0.2558 -0.5150 -0.8181
vn 0.4824 0.8436 -0.2360
vn 0.6771 0.6369 -0.3685
vn 0.1314 -0.2975 -0.9456
vn 0.7512 0.0827 0.6549
vn 0.6648 -0.7127 0.2238
vn 0.6701 -0.7370 -0.0886
vn 0.6738 -0.2984 0.6760
vn 0.4886 0.8692 0.0763
vn -0.5286 -0.5697 -0.6293
vn 0.2787 -0.6602 0.6975
vn 0.5749 0.4409 -0.6893
vn 0.7094 -0.6304 -0.3153
vn 0.5473 -0.7788 -0.3065
vn 0.2951 0.4844 -0.8236
vn 0.5658 -0.7320 0.3794
vn 0.7135 0.6365 0.2930
vn 0.5286 0.5697 0.6293
vn -0.6771 -0.6369 0.3686
vn 0.4242 -0.5577 0.7135
vn 0.2288 -0.2084 -0.9509
vn 0.7018 -0.6075 0.3721
vn 0.5603 -0.4331 0.7061
vn -0.3057 -0.1887 -0.9333
vn -0.5749 -0.4409 0.6892
vn 0.2557 -0.5150 -0.8181
vn 0.2952 0.4844 -0.8236
vn 0.5657 -0.7321 0.3794
vn 0.5658 -0.7321 0.3794
vn 0.7134 0.6365 0.2930
vn 0.4243 -0.5578 0.7133
s off
f 113//91 116//91 117//91
f 103//92 102//92 54//92
f 101//93 116//93 54//93
f 112//94 109//94 111//94
f 53//95 119//95 95//95
f 97//96 94//96 53//96
f 62//97 92//97 94//97
f 56//98 62//98 64//98
f 55//99 94//99 97//99
f 55//100 97//100 96//100
f 96//101 95//101 65//101
f 56//102 64//102 67//102
f 57//103 66//103 70//103
f 56//104 67//104 69//104
f 57//105 70//105 68//105
f 58//106 71//106 73//106
f 116//107 118//107 77//107
f 60//108 72//108 74//108
f 74//109 77//109 61//109
f 74//110 72//110 77//110
f 72//111 59//111 77//111
f 77//112 76//112 61//112
f 102//113 76//113 77//113
f 76//114 75//114 61//114
f 81//96 82//96 75//96
f 75//115 73//115 61//115
f 83//116 78//116 73//116
f 73//117 74//117 61//117
f 73//118 71//118 74//118
f 71//119 60//119 74//119
f 68//120 72//120 60//120
f 68//121 70//121 72//121
f 70//122 59//122 72//122
f 69//123 71//123 58//123
f 69//124 67//124 71//124
f 67//125 60//125 71//125
f 70//126 114//126 59//126
f 70//127 105//127 106//127
f 66//128 110//128 109//128
f 63//129 56//129 69//129
f 67//130 68//130 60//130
f 67//131 64//131 68//131
f 64//132 57//132 68//132
f 65//133 66//133 57//133
f 65//134 112//134 66//134
f 64//135 65//135 57//135
f 64//136 62//136 65//136
f 62//137 55//137 65//137
f 62//138 56//138 63//138
f 52//139 91//139 80//139
f 102//140 103//140 76//140
f 78//141 80//141 79//141
f 69//142 107//142 87//142
f 86//143 85//143 63//143
f 84//144 82//144 54//144
f 84//145 83//145 75//145
f 105//146 108//146 53//146
f 52//147 105//147 107//147
f 82//148 84//148 75//148
f 98//149 69//149 58//149
f 111//150 110//150 66//150
f 103//151 104//151 76//151
f 85//152 89//152 63//152
f 52//153 114//153 115//153
f 52//154 99//154 98//154
f 88//155 62//155 63//155
f 89//156 85//156 86//156
f 91//157 58//157 90//157
f 80//158 58//158 73//158
f 113//159 59//159 114//159
f 53//160 93//160 88//160
f 113//91 52//91 116//91
f 52//91 54//91 116//91
f 101//161 54//161 102//161
f 54//161 81//161 104//161
f 103//92 54//92 104//92
f 101//93 118//93 116//93
f 112//94 53//94 108//94
f 108//94 109//94 112//94
f 109//162 110//162 111//162
f 53//163 112//163 119//163
f 92//96 53//96 94//96
f 53//96 95//96 96//96
f 97//96 53//96 96//96
f 94//97 55//97 62//97
f 62//97 93//97 92//97
f 65//101 55//101 96//101
f 95//164 119//164 65//164
f 77//107 59//107 116//107
f 59//165 117//165 116//165
f 77//113 118//113 101//113
f 101//113 102//113 77//113
f 75//96 76//96 81//96
f 76//96 104//96 81//96
f 73//116 75//116 83//116
f 78//116 79//116 73//116
f 70//126 115//126 114//126
f 70//127 66//127 108//127
f 66//127 109//127 108//127
f 106//127 115//127 70//127
f 70//127 108//127 105//127
f 65//134 119//134 112//134
f 112//134 111//134 66//134
f 90//139 80//139 91//139
f 80//139 54//139 52//139
f 78//166 54//166 80//166
f 69//142 99//142 100//142
f 69//142 100//142 107//142
f 86//142 63//142 87//142
f 63//142 69//142 87//142
f 82//144 81//144 54//144
f 54//144 78//144 83//144
f 83//144 84//144 54//144
f 87//146 107//146 53//146
f 107//146 105//146 53//146
f 107//147 100//147 52//147
f 52//147 106//147 105//147
f 98//149 99//149 69//149
f 115//153 106//153 52//153
f 52//153 113//153 114//153
f 98//154 91//154 52//154
f 52//154 100//154 99//154
f 63//167 89//167 88//167
f 88//155 93//155 62//155
f 86//168 87//168 88//168
f 87//168 53//168 88//168
f 88//169 89//169 86//169
f 91//170 98//170 58//170
f 73//158 79//158 80//158
f 80//158 90//158 58//158
f 113//159 117//159 59//159
f 53//171 92//171 93//171
