# Blender v2.80 (sub 75) OBJ File: ''
# www.blender.org
v -1.202045 -0.250000 -4.761055
v -0.543215 -1.000000 -6.186378
v -1.202045 0.250000 -4.761055
v -0.543215 1.000000 -6.186378
v 0.454784 -0.250000 -3.687578
v 1.250663 -0.792933 -5.302068
v 0.454784 0.250000 -3.687578
v 1.250663 0.792933 -5.302068
v -3.477900 0.500000 -6.715702
v 4.484694 0.100000 -2.815898
v -3.477900 -0.500000 -6.715702
v 4.484694 -0.100000 -2.815898
v -2.469739 0.750000 -6.801605
v -2.469739 -0.750000 -6.801605
v -0.941154 -0.662953 -5.379133
v -0.941154 0.662953 -5.379133
v -0.044215 0.625000 -4.936978
v -0.044215 -0.625000 -4.936978
v 1.111701 -2.500000 -6.151003
v 0.780085 -1.500000 -5.478299
v 1.111701 2.500000 -6.151003
v 0.780085 1.500000 -5.478299
v 3.845979 -0.175000 -3.070884
v 3.845979 0.175000 -3.070884
v 2.867678 0.550000 -4.058983
v 2.867678 -0.550000 -4.058983
v 1.250663 0.000000 -5.302068
v -1.339094 0.000000 -4.571888
v 0.454784 0.000000 -3.687578
v -0.543215 0.000000 -6.186378
v -0.442155 0.000000 -4.129733
v 4.180071 0.000000 -3.027254
v 3.333291 0.000000 -3.064950
v 4.484694 0.000000 -2.815898
v 0.394765 0.000000 -5.800871
v -2.440853 0.000000 -6.774595
v -2.088647 0.000000 -5.313022
v -3.587755 0.000000 -6.795291
v 5.273174 2.137931 -2.441193
v 4.760604 1.530232 -2.949340
v 6.037839 2.179823 -1.887205
v 5.668959 1.272035 -2.154453
v 5.379245 0.415000 -2.126472
v 4.965134 0.134303 -2.516961
v 5.273174 -2.137931 -2.441193
v 4.760604 -1.530232 -2.949340
v 6.037839 -2.179823 -1.887205
v 5.668959 -1.272035 -2.154453
v 5.379245 -0.415000 -2.126472
v 4.965134 -0.134303 -2.516961
vn -0.2124 0.9345 0.2855
vn -0.5616 0.4273 0.7085
vn 0.5035 0.0000 -0.8640
vn -0.2023 0.8516 0.4836
vn -0.5107 0.7458 0.4278
vn -0.1977 -0.9166 0.3474
vn -0.0753 -0.0388 -0.9964
vn 0.6038 -0.0515 -0.7955
vn -0.7025 0.0413 0.7105
vn 0.3801 0.0000 -0.9249
vn 0.4480 0.0768 -0.8907
vn -0.0753 0.0388 -0.9964
vn -0.0524 0.9154 0.3992
vn 0.0178 0.1534 -0.9880
vn -0.2363 -0.9006 0.3647
vn -0.3708 0.0000 0.9287
vn -0.0524 -0.9154 0.3992
vn -0.0386 -0.9527 0.3014
vn -0.0516 -0.9157 0.3986
vn -0.1231 -0.9359 0.3301
vn 0.3042 0.0000 -0.9526
vn -0.4422 0.0000 0.8969
vn 0.5867 -0.0000 -0.8098
vn 0.0178 -0.1534 -0.9880
vn 0.5289 -0.1794 -0.8295
vn -0.2363 0.9006 0.3647
vn -0.1771 -0.5465 0.8186
vn -0.2023 -0.8516 0.4836
vn -0.2114 0.0000 0.9774
vn 0.6038 0.0515 -0.7955
vn -0.4928 0.4228 0.7605
vn -0.5107 -0.7458 0.4278
vn 0.4480 -0.0768 -0.8907
vn 0.6133 0.0000 -0.7898
vn -0.1977 0.9166 0.3474
vn -0.3413 0.8417 0.4183
vn -0.5165 0.6784 0.5224
vn 0.5890 0.0991 -0.8020
vn 0.5701 0.0000 -0.8216
vn -0.0386 0.9527 0.3014
vn -0.1231 0.9359 0.3301
vn -0.5432 0.5852 0.6021
vn 0.2960 -0.0230 -0.9549
vn 0.5890 -0.0991 -0.8020
vn -0.0751 0.9558 0.2844
vn -0.0516 0.9157 0.3986
vn 0.5289 0.1794 -0.8295
vn -0.4928 -0.4228 0.7605
vn -0.1485 0.4646 0.8730
vn -0.1771 0.5465 0.8186
vn -0.3413 -0.8417 0.4183
vn -0.5165 -0.6784 0.5224
vn 0.3507 0.1538 -0.9238
vn -0.1485 -0.4646 0.8730
vn -0.5432 -0.5852 0.6021
vn 0.2960 0.0230 -0.9549
vn 0.6668 -0.0588 -0.7429
vn -0.3252 -0.6775 0.6597
vn 0.6034 0.2289 -0.7639
vn 0.7196 0.1071 -0.6861
vn 0.3507 -0.1538 -0.9238
vn 0.6668 0.0588 -0.7429
vn 0.6034 -0.2289 -0.7639
vn 0.7196 -0.1071 -0.6861
vn -0.0751 -0.9558 0.2844
vn -0.3252 0.6775 0.6597
vn -0.2124 -0.9345 0.2855
vn -0.5616 -0.4273 0.7085
vn -0.7025 -0.0413 0.7105
s off
f 16//1 4//1 13//1
f 37//2 3//2 9//2
f 6//3 35//3 27//3
f 16//4 3//4 17//4
f 22//5 4//5 17//5
f 11//6 14//6 1//6
f 36//7 9//7 13//7
f 32//8 8//8 25//8
f 9//9 38//9 37//9
f 4//10 35//10 30//10
f 8//11 35//11 4//11
f 36//12 14//12 11//12
f 7//13 24//13 25//13
f 38//14 9//14 36//14
f 5//15 1//15 18//15
f 34//16 10//16 24//16
f 5//17 26//17 23//17
f 6//18 18//18 2//18
f 23//19 26//19 12//19
f 2//20 18//20 15//20
f 2//21 14//21 30//21
f 7//22 31//22 29//22
f 45//23 48//23 47//23
f 38//24 36//24 11//24
f 44//25 10//25 40//25
f 7//26 17//26 3//26
f 33//27 23//27 34//27
f 15//28 18//28 1//28
f 33//29 7//29 29//29
f 32//30 26//30 6//30
f 3//31 31//31 7//31
f 20//32 18//32 2//32
f 34//16 23//16 12//16
f 6//33 2//33 35//33
f 2//10 30//10 35//10
f 8//34 32//34 27//34
f 9//35 3//35 13//35
f 3//36 16//36 13//36
f 37//37 28//37 3//37
f 26//38 32//38 12//38
f 12//39 32//39 34//39
f 8//40 4//40 17//40
f 4//41 16//41 17//41
f 22//42 21//42 4//42
f 6//34 27//34 32//34
f 33//29 29//29 5//29
f 4//21 30//21 13//21
f 30//43 36//43 13//43
f 25//44 10//44 32//44
f 10//39 34//39 32//39
f 8//3 27//3 35//3
f 25//45 8//45 7//45
f 24//46 10//46 25//46
f 50//47 46//47 12//47
f 1//48 5//48 31//48
f 7//49 33//49 24//49
f 33//50 34//50 24//50
f 1//51 14//51 15//51
f 37//52 1//52 28//52
f 12//53 46//53 23//53
f 5//54 23//54 33//54
f 20//55 2//55 19//55
f 30//56 14//56 36//56
f 46//57 48//57 45//57
f 5//18 18//18 6//18
f 1//58 31//58 28//58
f 48//59 46//59 49//59
f 49//60 46//60 50//60
f 10//61 24//61 40//61
f 40//62 39//62 42//62
f 39//23 41//23 42//23
f 42//63 43//63 40//63
f 43//64 44//64 40//64
f 7//40 8//40 17//40
f 5//22 29//22 31//22
f 26//65 5//65 6//65
f 3//66 28//66 31//66
f 15//67 14//67 2//67
f 37//68 11//68 1//68
f 11//69 37//69 38//69
